<svg version="1.1" viewBox="0.0 0.0 1467.8687664041995 242.14698162729658" fill="none" stroke="none"
     stroke-linecap="square" stroke-miterlimit="10"
     xmlns="http://www.w3.org/2000/svg"><clipPath id="p.0"><path d="m0 0l1467.8688 0l0 242.14699l-1467.8688 0l0 -242.14699z" clip-rule="nonzero"/></clipPath><g clip-path="url(#p.0)"><path fill="#000000" fill-opacity="0.0" d="m0 0l1467.8688 0l0 242.14699l-1467.8688 0z" fill-rule="evenodd"/><path fill="#ff9f9f" d="m12.690289 53.59449l0 0c0 -9.184452 7.445469 -16.629925 16.629921 -16.629925l0 0c4.41053 0 8.640415 1.752079 11.759132 4.8707924c3.1187134 3.1187172 4.8707886 7.3486023 4.8707886 11.759132l0 0c0 9.184448 -7.445469 16.629921 -16.629921 16.629921l0 0c-9.184452 0 -16.629921 -7.4454727 -16.629921 -16.629921z" fill-rule="evenodd"/><path fill="#000000" d="m12.690289 122.13139l0 0c0 -9.184456 7.4102173 -16.629921 16.551182 -16.629921l0 0c4.3896446 0 8.599503 1.7520752 11.703453 4.8707886c3.1039467 3.1187134 4.8477287 7.3486023 4.8477287 11.759132l0 0c0 9.184448 -7.4102173 16.629913 -16.551182 16.629913l0 0c-9.1409645 0 -16.551182 -7.445465 -16.551182 -16.629913z" fill-rule="evenodd"/><path stroke="#000000" stroke-width="3.0" stroke-linejoin="round" stroke-linecap="butt" d="m12.690289 122.13139l0 0c0 -9.184456 7.4102173 -16.629921 16.551182 -16.629921l0 0c4.3896446 0 8.599503 1.7520752 11.703453 4.8707886c3.1039467 3.1187134 4.8477287 7.3486023 4.8477287 11.759132l0 0c0 9.184448 -7.4102173 16.629913 -16.551182 16.629913l0 0c-9.1409645 0 -16.551182 -7.445465 -16.551182 -16.629913z" fill-rule="evenodd"/><path fill="#ff9f9f" d="m12.769029 188.55281l0 0c0 -9.184448 7.4102163 -16.629929 16.551182 -16.629929l0 0c4.3896484 0 8.599503 1.7520752 11.703453 4.870804c3.1039467 3.1187134 4.8477287 7.348587 4.8477287 11.759125l0 0c0 9.184448 -7.4102173 16.629913 -16.551182 16.629913l0 0c-9.1409645 0 -16.551182 -7.445465 -16.551182 -16.629913z" fill-rule="evenodd"/><path stroke="#000000" stroke-width="2.0" stroke-linejoin="round" stroke-linecap="butt" stroke-dasharray="8.0,6.0" d="m12.769029 188.55281l0 0c0 -9.184448 7.4102163 -16.629929 16.551182 -16.629929l0 0c4.3896484 0 8.599503 1.7520752 11.703453 4.870804c3.1039467 3.1187134 4.8477287 7.348587 4.8477287 11.759125l0 0c0 9.184448 -7.4102173 16.629913 -16.551182 16.629913l0 0c-9.1409645 0 -16.551182 -7.445465 -16.551182 -16.629913z" fill-rule="evenodd"/><path fill="#ff9f9f" d="m336.5328 120.54527l0 0c0 -16.707695 13.537231 -30.251968 30.236237 -30.251968l0 0c8.0191345 0 15.709839 3.1872559 21.380219 8.860596c5.67041 5.6733475 8.855988 13.368057 8.855988 21.391373l0 0c0 16.707703 -13.537231 30.251968 -30.236206 30.251968l0 0c-16.699005 0 -30.236237 -13.544266 -30.236237 -30.251968z" fill-rule="evenodd"/><path fill="#ff4335" d="m350.1391 189.61023l0 0c0 -9.184448 7.445465 -16.629913 16.629944 -16.629913l0 0c4.4105225 0 8.640411 1.7520752 11.759125 4.8707886c3.1187134 3.1187134 4.8707886 7.3486023 4.8707886 11.759125l0 0c0 9.1844635 -7.445465 16.629929 -16.629913 16.629929l0 0c-9.184479 0 -16.629944 -7.445465 -16.629944 -16.629929z" fill-rule="evenodd"/><path fill="#ff9f9f" d="m776.34906 120.54462l0 0c0 -9.184448 7.4454956 -16.629921 16.629944 -16.629921l0 0c4.4105225 0 8.640442 1.7520752 11.759155 4.870796c3.1187134 3.1187134 4.8707886 7.3485947 4.8707886 11.759125l0 0c0 9.184448 -7.4454956 16.629929 -16.629944 16.629929l0 0c-9.184448 0 -16.629944 -7.4454803 -16.629944 -16.629929z" fill-rule="evenodd"/><path fill="#000000" d="m797.8136 121.37337l-4.765625 0l0 5.03125l-1.5 0l0 -11.375l7.046875 0l0 1.234375l-5.546875 0l0 3.890625l4.765625 0l0 1.21875z" fill-rule="nonzero"/><path fill="#000000" fill-opacity="0.0" d="m758.5381 190.66798l68.881836 0" fill-rule="evenodd"/><path stroke="#666666" stroke-width="3.0" stroke-linejoin="round" stroke-linecap="butt" d="m758.5381 190.66798l50.881836 0" fill-rule="evenodd"/><path fill="#666666" stroke="#666666" stroke-width="3.0" stroke-linecap="butt" d="m809.4199 195.62317l13.614319 -4.955185l-13.614319 -4.9552z" fill-rule="evenodd"/><path fill="#000000" fill-opacity="0.0" d="m78.20735 34.849083l177.5433 0l0 33.259842l-177.5433 0z" fill-rule="evenodd"/><path fill="#000000" d="m98.6761 54.086502q-0.203125 2.109375 -1.578125 3.3125q-1.359375 1.1875 -3.625 1.1875q-1.578125 0 -2.796875 -0.75q-1.203125 -0.765625 -1.859375 -2.140625q-0.65625 -1.390625 -0.6875 -3.21875l0 -1.234375q0 -1.875 0.671875 -3.296875q0.671875 -1.4375 1.90625 -2.21875q1.25 -0.78125 2.875 -0.78125q2.203125 0 3.53125 1.203125q1.34375 1.1875 1.5625 3.375l-2.296875 0q-0.15625 -1.4375 -0.828125 -2.0625q-0.671875 -0.640625 -1.96875 -0.640625q-1.5 0 -2.3125 1.109375q-0.796875 1.09375 -0.8125 3.203125l0 1.1875q0 2.140625 0.765625 3.28125q0.765625 1.125 2.25 1.125q1.359375 0 2.03125 -0.609375q0.6875 -0.609375 0.875 -2.03125l2.296875 0zm4.1950226 4.3125l-2.203125 0l0 -14.0l2.203125 0l0 14.0zm8.295517 0q-0.140625 -0.28125 -0.25 -0.921875q-1.046875 1.109375 -2.578125 1.109375q-1.484375 0 -2.4375 -0.84375q-0.9375 -0.859375 -0.9375 -2.109375q0 -1.578125 1.171875 -2.40625q1.171875 -0.84375 3.359375 -0.84375l1.359375 0l0 -0.65625q0 -0.765625 -0.4375 -1.21875q-0.421875 -0.46875 -1.296875 -0.46875q-0.765625 0 -1.25 0.390625q-0.46875 0.375 -0.46875 0.953125l-2.21875 0q0 -0.8125 0.53125 -1.515625q0.546875 -0.703125 1.46875 -1.09375q0.921875 -0.40625 2.0625 -0.40625q1.734375 0 2.75 0.875q1.03125 0.859375 1.0625 2.4375l0 4.4375q0 1.328125 0.375 2.125l0 0.15625l-2.265625 0zm-2.421875 -1.59375q0.65625 0 1.234375 -0.3125q0.578125 -0.328125 0.875 -0.859375l0 -1.859375l-1.203125 0q-1.234375 0 -1.859375 0.4375q-0.609375 0.421875 -0.609375 1.203125q0 0.640625 0.421875 1.015625q0.421875 0.375 1.140625 0.375zm12.155823 -1.078125q0 -0.59375 -0.484375 -0.90625q-0.484375 -0.3125 -1.625 -0.546875q-1.125 -0.234375 -1.875 -0.609375q-1.65625 -0.796875 -1.65625 -2.3125q0 -1.28125 1.0625 -2.125q1.078125 -0.859375 2.734375 -0.859375q1.78125 0 2.859375 0.875q1.09375 0.859375 1.09375 2.265625l-2.21875 0q0 -0.640625 -0.46875 -1.0625q-0.46875 -0.421875 -1.265625 -0.421875q-0.71875 0 -1.1875 0.34375q-0.453125 0.328125 -0.453125 0.890625q0 0.515625 0.421875 0.796875q0.4375 0.28125 1.734375 0.5625q1.296875 0.28125 2.03125 0.6875q0.75 0.390625 1.109375 0.953125q0.375 0.546875 0.375 1.34375q0 1.328125 -1.109375 2.15625q-1.109375 0.828125 -2.890625 0.828125q-1.203125 0 -2.15625 -0.4375q-0.953125 -0.4375 -1.484375 -1.203125q-0.515625 -0.765625 -0.515625 -1.65625l2.140625 0q0.046875 0.78125 0.59375 1.21875q0.546875 0.421875 1.453125 0.421875q0.875 0 1.328125 -0.328125q0.453125 -0.34375 0.453125 -0.875zm9.628738 0q0 -0.59375 -0.484375 -0.90625q-0.484375 -0.3125 -1.625 -0.546875q-1.125 -0.234375 -1.875 -0.609375q-1.65625 -0.796875 -1.65625 -2.3125q0 -1.28125 1.0625 -2.125q1.078125 -0.859375 2.734375 -0.859375q1.78125 0 2.859375 0.875q1.09375 0.859375 1.09375 2.265625l-2.21875 0q0 -0.640625 -0.46875 -1.0625q-0.46875 -0.421875 -1.265625 -0.421875q-0.71875 0 -1.1875 0.34375q-0.453125 0.328125 -0.453125 0.890625q0 0.515625 0.421875 0.796875q0.4375 0.28125 1.734375 0.5625q1.296875 0.28125 2.03125 0.6875q0.75 0.390625 1.109375 0.953125q0.375 0.546875 0.375 1.34375q0 1.328125 -1.109375 2.15625q-1.109375 0.828125 -2.890625 0.828125q-1.203125 0 -2.15625 -0.4375q-0.953125 -0.4375 -1.484375 -1.203125q-0.515625 -0.765625 -0.515625 -1.65625l2.140625 0q0.046875 0.78125 0.59375 1.21875q0.546875 0.421875 1.453125 0.421875q0.875 0 1.328125 -0.328125q0.453125 -0.34375 0.453125 -0.875z" fill-rule="nonzero"/><path fill="#000000" fill-opacity="0.0" d="m78.12861 105.50131l200.78741 0l0 33.259842l-200.78741 0z" fill-rule="evenodd"/><path fill="#000000" d="m90.90986 129.05124l-2.296875 0l0 -13.265633l2.296875 0l0 13.265633zm4.6715393 -9.859383l0.0625 1.140625q1.09375 -1.3125 2.875 -1.3125q3.078125 0 3.125 3.515625l0 6.5156326l-2.203125 0l0 -6.3906326q0 -0.9375 -0.40625 -1.375q-0.40625 -0.453125 -1.328125 -0.453125q-1.34375 0 -2.0 1.203125l0 7.0156326l-2.203125 0l0 -9.859383l2.078125 0zm11.094467 -2.390625l0 2.390625l1.734375 0l0 1.640625l-1.734375 0l0 5.5q0 0.5625 0.21875 0.8125q0.234375 0.25 0.796875 0.25q0.390625 0 0.78125 -0.078125l0 1.7031326q-0.75 0.21875 -1.453125 0.21875q-2.5625 0 -2.5625 -2.8125076l0 -5.59375l-1.609375 0l0 -1.640625l1.609375 0l0 -2.390625l2.21875 0zm7.7660675 12.437508q-2.09375 0 -3.40625 -1.3281326q-1.3125 -1.328125 -1.3125 -3.53125l0 -0.28125q0 -1.46875 0.5625 -2.625q0.578125 -1.171875 1.609375 -1.8125q1.03125 -0.640625 2.296875 -0.640625q2.015625 0 3.109375 1.28125q1.09375 1.28125 1.09375 3.625l0 0.890625l-6.4375 0q0.109375 1.234375 0.8125 1.953125q0.71875 0.703125 1.8125 0.703125q1.515625 0 2.46875 -1.234375l1.203125 1.140625q-0.59375 0.8750076 -1.59375 1.3750076q-0.984375 0.484375 -2.21875 0.484375zm-0.265625 -8.453133q-0.90625 0 -1.46875 0.640625q-0.5625 0.640625 -0.703125 1.78125l4.203125 0l0 -0.171875q-0.0625 -1.109375 -0.59375 -1.671875q-0.515625 -0.578125 -1.4375 -0.578125zm11.105087 0.4375q-0.4375 -0.078125 -0.90625 -0.078125q-1.515625 0 -2.046875 1.171875l0 6.7343826l-2.21875 0l0 -9.859383l2.125 0l0.046875 1.109375q0.796875 -1.28125 2.21875 -1.28125q0.484375 0 0.78125 0.125l0 2.078125zm2.3505096 7.8281326l0 -8.218758l-1.5 0l0 -1.640625l1.5 0l0 -0.90625q0 -1.625 0.9062576 -2.515625q0.921875 -0.90625 2.5625 -0.90625q0.578125 0 1.234375 0.171875l-0.046875 1.734375q-0.375 -0.078125 -0.84375 -0.078125q-1.59375 0 -1.59375 1.625l0 0.875l2.0 0l0 1.640625l-2.0 0l0 8.218758l-2.2187576 0zm11.7228775 0q-0.140625 -0.28125 -0.25 -0.921875q-1.046875 1.109375 -2.578125 1.109375q-1.484375 0 -2.4375 -0.84375q-0.9375 -0.8593826 -0.9375 -2.1093826q0 -1.578125 1.171875 -2.40625q1.171875 -0.84375 3.359375 -0.84375l1.359375 0l0 -0.65625q0 -0.765625 -0.4375 -1.21875q-0.421875 -0.46875 -1.296875 -0.46875q-0.765625 0 -1.25 0.390625q-0.46875 0.375 -0.46875 0.953125l-2.21875 0q0 -0.8125 0.53125 -1.515625q0.546875 -0.703125 1.46875 -1.09375q0.921875 -0.40625 2.0625 -0.40625q1.734375 0 2.75 0.875q1.03125 0.859375 1.0625 2.4375l0 4.4375q0 1.3281326 0.375 2.1250076l0 0.15625l-2.265625 0zm-2.421875 -1.5937576q0.65625 0 1.234375 -0.3125q0.578125 -0.328125 0.875 -0.859375l0 -1.859375l-1.203125 0q-1.234375 0 -1.859375 0.4375q-0.609375 0.421875 -0.609375 1.203125q0 0.640625 0.421875 1.015625q0.421875 0.375 1.140625 0.375zm10.687073 0.015625q0.828125 0 1.375 -0.484375q0.546875 -0.484375 0.578125 -1.203125l2.09375 0q-0.046875 0.921875 -0.59375 1.71875q-0.53125 0.7968826 -1.453125 1.2656326q-0.90625 0.46875 -1.984375 0.46875q-2.0625 0 -3.28125 -1.3437576q-1.203125 -1.34375 -1.203125 -3.703125l0 -0.21875q0 -2.25 1.203125 -3.59375q1.203125 -1.359375 3.28125 -1.359375q1.75 0 2.859375 1.03125q1.109375 1.015625 1.171875 2.671875l-2.09375 0q-0.03125 -0.84375 -0.578125 -1.390625q-0.546875 -0.546875 -1.375 -0.546875q-1.078125 0 -1.671875 0.78125q-0.578125 0.78125 -0.578125 2.359375l0 0.359375q0 1.609375 0.578125 2.40625q0.578125 0.78125 1.671875 0.78125zm10.046631 1.7656326q-2.09375 0 -3.40625 -1.3281326q-1.3125 -1.328125 -1.3125 -3.53125l0 -0.28125q0 -1.46875 0.5625 -2.625q0.578125 -1.171875 1.609375 -1.8125q1.03125 -0.640625 2.296875 -0.640625q2.015625 0 3.109375 1.28125q1.09375 1.28125 1.09375 3.625l0 0.890625l-6.4375 0q0.109375 1.234375 0.8125 1.953125q0.71875 0.703125 1.8125 0.703125q1.515625 0 2.46875 -1.234375l1.203125 1.140625q-0.59375 0.8750076 -1.59375 1.3750076q-0.984375 0.484375 -2.21875 0.484375zm-0.265625 -8.453133q-0.90625 0 -1.46875 0.640625q-0.5625 0.640625 -0.703125 1.78125l4.203125 0l0 -0.171875q-0.0625 -1.109375 -0.59375 -1.671875q-0.515625 -0.578125 -1.4375 -0.578125z" fill-rule="nonzero"/><path fill="#000000" fill-opacity="0.0" d="m78.20735 174.03806l200.7874 0l0 33.259842l-200.7874 0z" fill-rule="evenodd"/><path fill="#000000" d="m95.97298 194.49423l-5.125 0l-1.078125 3.09375l-2.40625 0l5.015625 -13.265625l2.0625 0l5.03125 13.265625l-2.40625 0l-1.09375 -3.09375zm-4.484375 -1.859375l3.84375 0l-1.921875 -5.5l-1.921875 5.5zm17.916245 0.125q0 2.296875 -1.03125 3.65625q-1.015625 1.359375 -2.8125 1.359375q-1.734375 0 -2.6875 -1.25l-0.109375 1.0625l-2.015625 0l0 -14.0l2.21875 0l0 5.09375q0.953125 -1.125 2.578125 -1.125q1.796875 0 2.828125 1.34375q1.03125 1.328125 1.03125 3.734375l0 0.125zm-2.21875 -0.1875q0 -1.609375 -0.5625 -2.40625q-0.5625 -0.796875 -1.640625 -0.796875q-1.4375 0 -2.015625 1.25l0 4.0625q0.59375 1.28125 2.046875 1.28125q1.03125 0 1.59375 -0.765625q0.5625 -0.78125 0.578125 -2.34375l0 -0.28125zm9.597 2.34375q0 -0.59375 -0.484375 -0.90625q-0.484375 -0.3125 -1.625 -0.546875q-1.125 -0.234375 -1.875 -0.609375q-1.65625 -0.796875 -1.65625 -2.3125q0 -1.28125 1.0625 -2.125q1.078125 -0.859375 2.734375 -0.859375q1.78125 0 2.859375 0.875q1.09375 0.859375 1.09375 2.265625l-2.21875 0q0 -0.640625 -0.46875 -1.0625q-0.46875 -0.421875 -1.265625 -0.421875q-0.71875 0 -1.1875 0.34375q-0.453125 0.328125 -0.453125 0.890625q0 0.515625 0.421875 0.796875q0.4375 0.28125 1.734375 0.5625q1.296875 0.28125 2.03125 0.6875q0.75 0.390625 1.109375 0.953125q0.375 0.546875 0.375 1.34375q0 1.328125 -1.109375 2.15625q-1.109375 0.828125 -2.890625 0.828125q-1.203125 0 -2.15625 -0.4375q-0.953125 -0.4375 -1.484375 -1.203125q-0.515625 -0.765625 -0.515625 -1.65625l2.140625 0q0.046875 0.78125 0.59375 1.21875q0.546875 0.421875 1.453125 0.421875q0.875 0 1.328125 -0.328125q0.453125 -0.34375 0.453125 -0.875zm6.8787384 -9.578125l0 2.390625l1.734375 0l0 1.640625l-1.734375 0l0 5.5q0 0.5625 0.21875 0.8125q0.234375 0.25 0.796875 0.25q0.390625 0 0.78125 -0.078125l0 1.703125q-0.75 0.21875 -1.453125 0.21875q-2.5625 0 -2.5625 -2.8125l0 -5.59375l-1.609375 0l0 -1.640625l1.609375 0l0 -2.390625l2.21875 0zm8.5941925 4.421875q-0.4375 -0.078125 -0.90625 -0.078125q-1.515625 0 -2.046875 1.171875l0 6.734375l-2.21875 0l0 -9.859375l2.125 0l0.046875 1.109375q0.796875 -1.28125 2.21875 -1.28125q0.484375 0 0.78125 0.125l0 2.078125zm7.0041504 7.828125q-0.140625 -0.28125 -0.25 -0.921875q-1.046875 1.109375 -2.578125 1.109375q-1.484375 0 -2.4375 -0.84375q-0.9375 -0.859375 -0.9375 -2.109375q0 -1.578125 1.171875 -2.40625q1.171875 -0.84375 3.359375 -0.84375l1.359375 0l0 -0.65625q0 -0.765625 -0.4375 -1.21875q-0.421875 -0.46875 -1.296875 -0.46875q-0.765625 0 -1.25 0.390625q-0.46875 0.375 -0.46875 0.953125l-2.21875 0q0 -0.8125 0.53125 -1.515625q0.546875 -0.703125 1.46875 -1.09375q0.921875 -0.40625 2.0625 -0.40625q1.734375 0 2.75 0.875q1.03125 0.859375 1.0625 2.4375l0 4.4375q0 1.328125 0.375 2.125l0 0.15625l-2.265625 0zm-2.421875 -1.59375q0.65625 0 1.234375 -0.3125q0.578125 -0.328125 0.875 -0.859375l0 -1.859375l-1.203125 0q-1.234375 0 -1.859375 0.4375q-0.609375 0.421875 -0.609375 1.203125q0 0.640625 0.421875 1.015625q0.421875 0.375 1.140625 0.375zm10.687073 0.015625q0.828125 0 1.375 -0.484375q0.546875 -0.484375 0.578125 -1.203125l2.09375 0q-0.046875 0.921875 -0.59375 1.71875q-0.53125 0.796875 -1.453125 1.265625q-0.90625 0.46875 -1.984375 0.46875q-2.0625 0 -3.28125 -1.34375q-1.203125 -1.34375 -1.203125 -3.703125l0 -0.21875q0 -2.25 1.203125 -3.59375q1.203125 -1.359375 3.28125 -1.359375q1.75 0 2.859375 1.03125q1.109375 1.015625 1.171875 2.671875l-2.09375 0q-0.03125 -0.84375 -0.578125 -1.390625q-0.546875 -0.546875 -1.375 -0.546875q-1.078125 0 -1.671875 0.78125q-0.578125 0.78125 -0.578125 2.359375l0 0.359375q0 1.609375 0.578125 2.40625q0.578125 0.78125 1.671875 0.78125zm8.484131 -10.671875l0 2.390625l1.734375 0l0 1.640625l-1.734375 0l0 5.5q0 0.5625 0.21875 0.8125q0.234375 0.25 0.796875 0.25q0.390625 0 0.78125 -0.078125l0 1.703125q-0.75 0.21875 -1.453125 0.21875q-2.5625 0 -2.5625 -2.8125l0 -5.59375l-1.609375 0l0 -1.640625l1.609375 0l0 -2.390625l2.21875 0zm12.130661 10.671875q0.828125 0 1.375 -0.484375q0.546875 -0.484375 0.578125 -1.203125l2.09375 0q-0.046875 0.921875 -0.59375 1.71875q-0.53125 0.796875 -1.453125 1.265625q-0.90625 0.46875 -1.984375 0.46875q-2.0625 0 -3.28125 -1.34375q-1.203125 -1.34375 -1.203125 -3.703125l0 -0.21875q0 -2.25 1.203125 -3.59375q1.203125 -1.359375 3.28125 -1.359375q1.75 0 2.859375 1.03125q1.109375 1.015625 1.171875 2.671875l-2.09375 0q-0.03125 -0.84375 -0.578125 -1.390625q-0.546875 -0.546875 -1.375 -0.546875q-1.078125 0 -1.671875 0.78125q-0.578125 0.78125 -0.578125 2.359375l0 0.359375q0 1.609375 0.578125 2.40625q0.578125 0.78125 1.671875 0.78125zm8.062256 1.578125l-2.203125 0l0 -14.0l2.203125 0l0 14.0zm8.295517 0q-0.140625 -0.28125 -0.25 -0.921875q-1.046875 1.109375 -2.578125 1.109375q-1.484375 0 -2.4375 -0.84375q-0.9375 -0.859375 -0.9375 -2.109375q0 -1.578125 1.171875 -2.40625q1.171875 -0.84375 3.359375 -0.84375l1.359375 0l0 -0.65625q0 -0.765625 -0.4375 -1.21875q-0.421875 -0.46875 -1.296875 -0.46875q-0.765625 0 -1.25 0.390625q-0.46875 0.375 -0.46875 0.953125l-2.21875 0q0 -0.8125 0.53125 -1.515625q0.546875 -0.703125 1.46875 -1.09375q0.921875 -0.40625 2.0625 -0.40625q1.734375 0 2.75 0.875q1.03125 0.859375 1.0625 2.4375l0 4.4375q0 1.328125 0.375 2.125l0 0.15625l-2.265625 0zm-2.421875 -1.59375q0.65625 0 1.234375 -0.3125q0.578125 -0.328125 0.875 -0.859375l0 -1.859375l-1.203125 0q-1.234375 0 -1.859375 0.4375q-0.609375 0.421875 -0.609375 1.203125q0 0.640625 0.421875 1.015625q0.421875 0.375 1.140625 0.375zm12.155823 -1.078125q0 -0.59375 -0.484375 -0.90625q-0.484375 -0.3125 -1.625 -0.546875q-1.125 -0.234375 -1.875 -0.609375q-1.65625 -0.796875 -1.65625 -2.3125q0 -1.28125 1.0625 -2.125q1.078125 -0.859375 2.734375 -0.859375q1.78125 0 2.859375 0.875q1.09375 0.859375 1.09375 2.265625l-2.21875 0q0 -0.640625 -0.46875 -1.0625q-0.46875 -0.421875 -1.265625 -0.421875q-0.71875 0 -1.1875 0.34375q-0.453125 0.328125 -0.453125 0.890625q0 0.515625 0.421875 0.796875q0.4375 0.28125 1.734375 0.5625q1.296875 0.28125 2.03125 0.6875q0.75 0.390625 1.109375 0.953125q0.375 0.546875 0.375 1.34375q0 1.328125 -1.109375 2.15625q-1.109375 0.828125 -2.890625 0.828125q-1.203125 0 -2.15625 -0.4375q-0.953125 -0.4375 -1.484375 -1.203125q-0.515625 -0.765625 -0.515625 -1.65625l2.140625 0q0.046875 0.78125 0.59375 1.21875q0.546875 0.421875 1.453125 0.421875q0.875 0 1.328125 -0.328125q0.453125 -0.34375 0.453125 -0.875zm9.628738 0q0 -0.59375 -0.484375 -0.90625q-0.484375 -0.3125 -1.625 -0.546875q-1.125 -0.234375 -1.875 -0.609375q-1.65625 -0.796875 -1.65625 -2.3125q0 -1.28125 1.0625 -2.125q1.078125 -0.859375 2.734375 -0.859375q1.78125 0 2.859375 0.875q1.09375 0.859375 1.09375 2.265625l-2.21875 0q0 -0.640625 -0.46875 -1.0625q-0.46875 -0.421875 -1.265625 -0.421875q-0.71875 0 -1.1875 0.34375q-0.453125 0.328125 -0.453125 0.890625q0 0.515625 0.421875 0.796875q0.4375 0.28125 1.734375 0.5625q1.296875 0.28125 2.03125 0.6875q0.75 0.390625 1.109375 0.953125q0.375 0.546875 0.375 1.34375q0 1.328125 -1.109375 2.15625q-1.109375 0.828125 -2.890625 0.828125q-1.203125 0 -2.15625 -0.4375q-0.953125 -0.4375 -1.484375 -1.203125q-0.515625 -0.765625 -0.515625 -1.65625l2.140625 0q0.046875 0.78125 0.59375 1.21875q0.546875 0.421875 1.453125 0.421875q0.875 0 1.328125 -0.328125q0.453125 -0.34375 0.453125 -0.875z" fill-rule="nonzero"/><path fill="#000000" fill-opacity="0.0" d="m415.65616 103.914696l200.78738 0l0 33.25985l-200.78738 0z" fill-rule="evenodd"/><path fill="#000000" d="m428.9999 114.19899l3.8125 10.171875l3.828125 -10.171875l2.96875 0l0 13.265625l-2.296875 0l0 -4.375l0.234375 -5.84375l-3.921875 10.21875l-1.640625 0l-3.90625 -10.21875l0.21875 5.84375l0 4.375l-2.296875 0l0 -13.265625l3.0 0zm17.458344 13.453125q-2.09375 0 -3.40625 -1.328125q-1.3125 -1.328125 -1.3125 -3.53125l0 -0.28125q0 -1.46875 0.5625 -2.625q0.578125 -1.171875 1.609375 -1.8125q1.03125 -0.640625 2.296875 -0.640625q2.015625 0 3.109375 1.28125q1.09375 1.28125 1.09375 3.625l0 0.890625l-6.4375 0q0.109375 1.234375 0.8125 1.953125q0.71875 0.703125 1.8125 0.703125q1.515625 0 2.46875 -1.234375l1.203125 1.140625q-0.59375 0.875 -1.59375 1.375q-0.984375 0.484375 -2.21875 0.484375zm-0.265625 -8.453125q-0.90625 0 -1.46875 0.640625q-0.5625 0.640625 -0.703125 1.78125l4.203125 0l0 -0.171875q-0.0625 -1.109375 -0.59375 -1.671875q-0.515625 -0.578125 -1.4375 -0.578125zm8.714447 -3.984375l0 2.390625l1.734375 0l0 1.640625l-1.734375 0l0 5.5q0 0.5625 0.21875 0.8125q0.234375 0.25 0.796875 0.25q0.390625 0 0.78125 -0.078125l0 1.703125q-0.75 0.21875 -1.453125 0.21875q-2.5625 0 -2.5625 -2.8125l0 -5.59375l-1.609375 0l0 -1.640625l1.609375 0l0 -2.390625l2.21875 0zm5.609833 3.46875q1.09375 -1.25 2.75 -1.25q3.140625 0 3.1875 3.59375l0 6.4375l-2.203125 0l0 -6.359375q0 -1.015625 -0.453125 -1.4375q-0.4375 -0.421875 -1.296875 -0.421875q-1.328125 0 -1.984375 1.171875l0 7.046875l-2.203125 0l0 -14.0l2.203125 0l0 5.21875zm7.763733 3.765625q0 -1.453125 0.578125 -2.609375q0.578125 -1.171875 1.609375 -1.78125q1.03125 -0.625 2.390625 -0.625q1.984375 0 3.234375 1.28125q1.25 1.28125 1.34375 3.40625l0.015625 0.515625q0 1.453125 -0.5625 2.609375q-0.5625 1.140625 -1.609375 1.78125q-1.046875 0.625 -2.40625 0.625q-2.09375 0 -3.34375 -1.390625q-1.25 -1.390625 -1.25 -3.703125l0 -0.109375zm2.21875 0.1875q0 1.515625 0.625 2.390625q0.625 0.859375 1.75 0.859375q1.125 0 1.734375 -0.875q0.625 -0.875 0.625 -2.5625q0 -1.5 -0.640625 -2.375q-0.640625 -0.875 -1.734375 -0.875q-1.09375 0 -1.734375 0.859375q-0.625 0.859375 -0.625 2.578125zm8.402924 -0.171875q0 -2.28125 1.046875 -3.65625q1.0625 -1.375 2.84375 -1.375q1.5625 0 2.53125 1.078125l0 -5.046875l2.21875 0l0 14.0l-2.015625 0l-0.109375 -1.015625q-0.984375 1.203125 -2.640625 1.203125q-1.734375 0 -2.8125 -1.390625q-1.0625 -1.40625 -1.0625 -3.796875zm2.21875 0.1875q0 1.5 0.578125 2.34375q0.578125 0.84375 1.640625 0.84375q1.359375 0 1.984375 -1.203125l0 -4.21875q-0.609375 -1.171875 -1.96875 -1.171875q-1.078125 0 -1.65625 0.859375q-0.578125 0.84375 -0.578125 2.546875zm12.957672 -0.203125q0 -1.453125 0.578125 -2.609375q0.578125 -1.171875 1.609375 -1.78125q1.03125 -0.625 2.390625 -0.625q1.984375 0 3.234375 1.28125q1.25 1.28125 1.34375 3.40625l0.015625 0.515625q0 1.453125 -0.5625 2.609375q-0.5625 1.140625 -1.609375 1.78125q-1.046875 0.625 -2.40625 0.625q-2.09375 0 -3.34375 -1.390625q-1.25 -1.390625 -1.25 -3.703125l0 -0.109375zm2.21875 0.1875q0 1.515625 0.625 2.390625q0.625 0.859375 1.75 0.859375q1.125 0 1.734375 -0.875q0.625 -0.875 0.625 -2.5625q0 -1.5 -0.640625 -2.375q-0.640625 -0.875 -1.734375 -0.875q-1.09375 0 -1.734375 0.859375q-0.625 0.859375 -0.625 2.578125zm12.15683 2.015625l2.09375 -7.046875l2.2812805 0l-3.4219055 9.859375l-1.921875 0l-3.4375 -9.859375l2.296875 0l2.109375 7.046875zm9.968842 3.0q-2.09375 0 -3.40625 -1.328125q-1.3125 -1.328125 -1.3125 -3.53125l0 -0.28125q0 -1.46875 0.5625 -2.625q0.578125 -1.171875 1.609375 -1.8125q1.03125 -0.640625 2.296875 -0.640625q2.015625 0 3.109375 1.28125q1.09375 1.28125 1.09375 3.625l0 0.890625l-6.4375 0q0.109375 1.234375 0.8125 1.953125q0.71875 0.703125 1.8125 0.703125q1.515625 0 2.46875 -1.234375l1.203125 1.140625q-0.59375 0.875 -1.59375 1.375q-0.984375 0.484375 -2.21875 0.484375zm-0.265625 -8.453125q-0.90625 0 -1.46875 0.640625q-0.5625 0.640625 -0.703125 1.78125l4.203125 0l0 -0.171875q-0.0625 -1.109375 -0.59375 -1.671875q-0.515625 -0.578125 -1.4375 -0.578125zm11.1050415 0.4375q-0.4375 -0.078125 -0.90625 -0.078125q-1.515625 0 -2.046875 1.171875l0 6.734375l-2.21875 0l0 -9.859375l2.125 0l0.046875 1.109375q0.796875 -1.28125 2.21875 -1.28125q0.484375 0 0.78125 0.125l0 2.078125zm3.746338 7.828125l-2.203125 0l0 -14.0l2.203125 0l0 14.0zm1.9986572 -5.015625q0 -1.453125 0.578125 -2.609375q0.578125 -1.171875 1.609375 -1.78125q1.03125 -0.625 2.390625 -0.625q1.984375 0 3.234375 1.28125q1.25 1.28125 1.34375 3.40625l0.015625 0.515625q0 1.453125 -0.5625 2.609375q-0.5625 1.140625 -1.609375 1.78125q-1.046875 0.625 -2.40625 0.625q-2.09375 0 -3.34375 -1.390625q-1.25 -1.390625 -1.25 -3.703125l0 -0.109375zm2.21875 0.1875q0 1.515625 0.625 2.390625q0.625 0.859375 1.75 0.859375q1.125 0 1.734375 -0.875q0.625 -0.875 0.625 -2.5625q0 -1.5 -0.640625 -2.375q-0.640625 -0.875 -1.734375 -0.875q-1.09375 0 -1.734375 0.859375q-0.625 0.859375 -0.625 2.578125zm14.699829 4.828125q-0.140625 -0.28125 -0.25 -0.921875q-1.046875 1.109375 -2.578125 1.109375q-1.484375 0 -2.4375 -0.84375q-0.9375 -0.859375 -0.9375 -2.109375q0 -1.578125 1.171875 -2.40625q1.171875 -0.84375 3.359375 -0.84375l1.359375 0l0 -0.65625q0 -0.765625 -0.4375 -1.21875q-0.421875 -0.46875 -1.296875 -0.46875q-0.765625 0 -1.25 0.390625q-0.46875 0.375 -0.46875 0.953125l-2.21875 0q0 -0.8125 0.53125 -1.515625q0.546875 -0.703125 1.46875 -1.09375q0.921875 -0.40625 2.0625 -0.40625q1.734375 0 2.75 0.875q1.03125 0.859375 1.0625 2.4375l0 4.4375q0 1.328125 0.375 2.125l0 0.15625l-2.265625 0zm-2.421875 -1.59375q0.65625 0 1.234375 -0.3125q0.578125 -0.328125 0.875 -0.859375l0 -1.859375l-1.203125 0q-1.234375 0 -1.859375 0.4375q-0.609375 0.421875 -0.609375 1.203125q0 0.640625 0.421875 1.015625q0.421875 0.375 1.140625 0.375zm6.2183228 -3.40625q0 -2.28125 1.046875 -3.65625q1.0625 -1.375 2.84375 -1.375q1.5625 0 2.53125 1.078125l0 -5.046875l2.21875 0l0 14.0l-2.015625 0l-0.109375 -1.015625q-0.984375 1.203125 -2.640625 1.203125q-1.734375 0 -2.8125 -1.390625q-1.0625 -1.40625 -1.0625 -3.796875zm2.21875 0.1875q0 1.5 0.578125 2.34375q0.578125 0.84375 1.640625 0.84375q1.359375 0 1.984375 -1.203125l0 -4.21875q-0.609375 -1.171875 -1.96875 -1.171875q-1.078125 0 -1.65625 0.859375q-0.578125 0.84375 -0.578125 2.546875zm14.249329 2.140625q0 -0.59375 -0.484375 -0.90625q-0.484375 -0.3125 -1.625 -0.546875q-1.125 -0.234375 -1.875 -0.609375q-1.65625 -0.796875 -1.65625 -2.3125q0 -1.28125 1.0625 -2.125q1.078125 -0.859375 2.734375 -0.859375q1.78125 0 2.859375 0.875q1.09375 0.859375 1.09375 2.265625l-2.21875 0q0 -0.640625 -0.46875 -1.0625q-0.46875 -0.421875 -1.265625 -0.421875q-0.71875 0 -1.1875 0.34375q-0.453125 0.328125 -0.453125 0.890625q0 0.515625 0.421875 0.796875q0.4375 0.28125 1.734375 0.5625q1.296875 0.28125 2.03125 0.6875q0.75 0.390625 1.109375 0.953125q0.375 0.546875 0.375 1.34375q0 1.328125 -1.109375 2.15625q-1.109375 0.828125 -2.890625 0.828125q-1.203125 0 -2.15625 -0.4375q-0.953125 -0.4375 -1.484375 -1.203125q-0.515625 -0.765625 -0.515625 -1.65625l2.140625 0q0.046875 0.78125 0.59375 1.21875q0.546875 0.421875 1.453125 0.421875q0.875 0 1.328125 -0.328125q0.453125 -0.34375 0.453125 -0.875z" fill-rule="nonzero"/><path fill="#ff9f9f" d="m350.21783 51.47916l0 0c0 -9.184452 7.4102173 -16.629921 16.551208 -16.629921l0 0c4.389618 0 8.599487 1.7520752 11.70343 4.8707924c3.1039429 3.1187134 4.847748 7.3485985 4.847748 11.759129l0 0c0 9.184452 -7.4102173 16.629925 -16.551178 16.629925l0 0c-9.140991 0 -16.551208 -7.4454727 -16.551208 -16.629925z" fill-rule="evenodd"/><path stroke="#000000" stroke-width="4.0" stroke-linejoin="round" stroke-linecap="butt" d="m350.21783 51.47916l0 0c0 -9.184452 7.4102173 -16.629921 16.551208 -16.629921l0 0c4.389618 0 8.599487 1.7520752 11.70343 4.8707924c3.1039429 3.1187134 4.847748 7.3485985 4.847748 11.759129l0 0c0 9.184452 -7.4102173 16.629925 -16.551178 16.629925l0 0c-9.140991 0 -16.551208 -7.4454727 -16.551208 -16.629925z" fill-rule="evenodd"/><path fill="#000000" fill-opacity="0.0" d="m415.65616 34.849083l200.78738 0l0 33.259842l-200.78738 0z" fill-rule="evenodd"/><path fill="#000000" d="m436.53116 58.399002l-2.3125 0l-5.90625 -9.40625l0 9.40625l-2.3125 0l0 -13.265625l2.3125 0l5.921875 9.453125l0 -9.453125l2.296875 0l0 13.265625zm8.479584 -0.96875q-0.984375 1.15625 -2.765625 1.15625q-1.609375 0 -2.4375 -0.9375q-0.828125 -0.9375 -0.828125 -2.71875l0 -6.390625l2.21875 0l0 6.359375q0 1.875 1.5625 1.875q1.609375 0 2.171875 -1.15625l0 -7.078125l2.21875 0l0 9.859375l-2.09375 0l-0.046875 -0.96875zm6.4759827 -8.890625l0.0625 1.03125q1.03125 -1.203125 2.84375 -1.203125q1.96875 0 2.703125 1.5q1.078125 -1.5 3.015625 -1.5q1.640625 0 2.4375 0.90625q0.796875 0.890625 0.8125 2.640625l0 6.484375l-2.21875 0l0 -6.40625q0 -0.9375 -0.40625 -1.375q-0.40625 -0.4375 -1.359375 -0.4375q-0.75 0 -1.234375 0.40625q-0.46875 0.390625 -0.671875 1.046875l0.015625 6.765625l-2.21875 0l0 -6.484375q-0.046875 -1.734375 -1.765625 -1.734375q-1.328125 0 -1.890625 1.078125l0 7.140625l-2.21875 0l0 -9.859375l2.09375 0zm22.795624 5.03125q0 2.296875 -1.03125 3.65625q-1.015625 1.359375 -2.8125 1.359375q-1.734375 0 -2.6875 -1.25l-0.109375 1.0625l-2.015625 0l0 -14.0l2.21875 0l0 5.09375q0.953125 -1.125 2.578125 -1.125q1.796875 0 2.828125 1.34375q1.03125 1.328125 1.03125 3.734375l0 0.125zm-2.21875 -0.1875q0 -1.609375 -0.5625 -2.40625q-0.5625 -0.796875 -1.640625 -0.796875q-1.4375 0 -2.015625 1.25l0 4.0625q0.59375 1.28125 2.046875 1.28125q1.03125 0 1.59375 -0.765625q0.5625 -0.78125 0.578125 -2.34375l0 -0.28125zm8.409515 5.203125q-2.09375 0 -3.40625 -1.328125q-1.3125 -1.328125 -1.3125 -3.53125l0 -0.28125q0 -1.46875 0.5625 -2.625q0.578125 -1.171875 1.609375 -1.8125q1.03125 -0.640625 2.296875 -0.640625q2.015625 0 3.109375 1.28125q1.09375 1.28125 1.09375 3.625l0 0.890625l-6.4375 0q0.109375 1.234375 0.8125 1.953125q0.71875 0.703125 1.8125 0.703125q1.515625 0 2.46875 -1.234375l1.203125 1.140625q-0.59375 0.875 -1.59375 1.375q-0.984375 0.484375 -2.21875 0.484375zm-0.265625 -8.453125q-0.90625 0 -1.46875 0.640625q-0.5625 0.640625 -0.703125 1.78125l4.203125 0l0 -0.171875q-0.0625 -1.109375 -0.59375 -1.671875q-0.515625 -0.578125 -1.4375 -0.578125zm11.105072 0.4375q-0.4375 -0.078125 -0.90625 -0.078125q-1.515625 0 -2.046875 1.171875l0 6.734375l-2.21875 0l0 -9.859375l2.125 0l0.046875 1.109375q0.796875 -1.28125 2.21875 -1.28125q0.484375 0 0.78125 0.125l0 2.078125zm5.6265564 2.8125q0 -1.453125 0.578125 -2.609375q0.578125 -1.171875 1.609375 -1.78125q1.03125 -0.625 2.390625 -0.625q1.984375 0 3.234375 1.28125q1.25 1.28125 1.34375 3.40625l0.015625 0.515625q0 1.453125 -0.5625 2.609375q-0.5625 1.140625 -1.609375 1.78125q-1.046875 0.625 -2.40625 0.625q-2.09375 0 -3.34375 -1.390625q-1.25 -1.390625 -1.25 -3.703125l0 -0.109375zm2.21875 0.1875q0 1.515625 0.625 2.390625q0.625 0.859375 1.75 0.859375q1.125 0 1.734375 -0.875q0.625 -0.875 0.625 -2.5625q0 -1.5 -0.640625 -2.375q-0.640625 -0.875 -1.734375 -0.875q-1.09375 0 -1.734375 0.859375q-0.625 0.859375 -0.625 2.578125zm9.590424 4.828125l0 -8.21875l-1.5 0l0 -1.640625l1.5 0l0 -0.90625q0 -1.625 0.90625 -2.515625q0.921875 -0.90625 2.5625 -0.90625q0.578125 0 1.234375 0.171875l-0.046875 1.734375q-0.375 -0.078125 -0.84375 -0.078125q-1.59375 0 -1.59375 1.625l0 0.875l2.0 0l0 1.640625l-2.0 0l0 8.21875l-2.21875 0zm13.962463 -2.8125l2.09375 -7.046875l2.28125 0l-3.421875 9.859375l-1.921875 0l-3.4375 -9.859375l2.296875 0l2.109375 7.046875zm11.497437 2.8125q-0.140625 -0.28125 -0.25 -0.921875q-1.046875 1.109375 -2.578125 1.109375q-1.484375 0 -2.4375 -0.84375q-0.9375 -0.859375 -0.9375 -2.109375q0 -1.578125 1.171875 -2.40625q1.171875 -0.84375 3.359375 -0.84375l1.359375 0l0 -0.65625q0 -0.765625 -0.4375 -1.21875q-0.421875 -0.46875 -1.296875 -0.46875q-0.765625 0 -1.25 0.390625q-0.46875 0.375 -0.46875 0.953125l-2.21875 0q0 -0.8125 0.53125 -1.515625q0.546875 -0.703125 1.46875 -1.09375q0.921875 -0.40625 2.0625 -0.40625q1.734375 0 2.75 0.875q1.03125 0.859375 1.0625 2.4375l0 4.4375q0 1.328125 0.375 2.125l0 0.15625l-2.265625 0zm-2.421875 -1.59375q0.65625 0 1.234375 -0.3125q0.578125 -0.328125 0.875 -0.859375l0 -1.859375l-1.203125 0q-1.234375 0 -1.859375 0.4375q-0.609375 0.421875 -0.609375 1.203125q0 0.640625 0.421875 1.015625q0.421875 0.375 1.140625 0.375zm11.796448 -6.234375q-0.4375 -0.078125 -0.90625 -0.078125q-1.515625 0 -2.046875 1.171875l0 6.734375l-2.21875 0l0 -9.859375l2.125 0l0.046875 1.109375q0.796875 -1.28125 2.21875 -1.28125q0.484375 0 0.78125 0.125l0 2.078125zm3.746338 7.828125l-2.203125 0l0 -9.859375l2.203125 0l0 9.859375zm-2.34375 -12.421875q0 -0.5 0.3125 -0.828125q0.328125 -0.34375 0.921875 -0.34375q0.609375 0 0.9375 0.34375q0.328125 0.328125 0.328125 0.828125q0 0.5 -0.328125 0.84375q-0.328125 0.328125 -0.9375 0.328125q-0.59375 0 -0.921875 -0.328125q-0.3125 -0.34375 -0.3125 -0.84375zm10.639282 12.421875q-0.140625 -0.28125 -0.25 -0.921875q-1.046875 1.109375 -2.578125 1.109375q-1.484375 0 -2.4375 -0.84375q-0.9375 -0.859375 -0.9375 -2.109375q0 -1.578125 1.171875 -2.40625q1.171875 -0.84375 3.359375 -0.84375l1.359375 0l0 -0.65625q0 -0.765625 -0.4375 -1.21875q-0.421875 -0.46875 -1.296875 -0.46875q-0.765625 0 -1.25 0.390625q-0.46875 0.375 -0.46875 0.953125l-2.21875 0q0 -0.8125 0.53125 -1.515625q0.546875 -0.703125 1.46875 -1.09375q0.921875 -0.40625 2.0625 -0.40625q1.734375 0 2.75 0.875q1.03125 0.859375 1.0625 2.4375l0 4.4375q0 1.328125 0.375 2.125l0 0.15625l-2.265625 0zm-2.421875 -1.59375q0.65625 0 1.234375 -0.3125q0.578125 -0.328125 0.875 -0.859375l0 -1.859375l-1.203125 0q-1.234375 0 -1.859375 0.4375q-0.609375 0.421875 -0.609375 1.203125q0 0.640625 0.421875 1.015625q0.421875 0.375 1.140625 0.375zm8.687073 -8.265625l0.0625 1.140625q1.09375 -1.3125 2.875 -1.3125q3.078125 0 3.125 3.515625l0 6.515625l-2.203125 0l0 -6.390625q0 -0.9375 -0.40625 -1.375q-0.40625 -0.453125 -1.328125 -0.453125q-1.34375 0 -2.0 1.203125l0 7.015625l-2.203125 0l0 -9.859375l2.078125 0zm11.094482 -2.390625l0 2.390625l1.734375 0l0 1.640625l-1.734375 0l0 5.5q0 0.5625 0.21875 0.8125q0.234375 0.25 0.796875 0.25q0.390625 0 0.78125 -0.078125l0 1.703125q-0.75 0.21875 -1.453125 0.21875q-2.5625 0 -2.5625 -2.8125l0 -5.59375l-1.609375 0l0 -1.640625l1.609375 0l0 -2.390625l2.21875 0zm8.953552 9.578125q0 -0.59375 -0.484375 -0.90625q-0.484375 -0.3125 -1.625 -0.546875q-1.125 -0.234375 -1.875 -0.609375q-1.65625 -0.796875 -1.65625 -2.3125q0 -1.28125 1.0625 -2.125q1.078125 -0.859375 2.734375 -0.859375q1.78125 0 2.859375 0.875q1.09375 0.859375 1.09375 2.265625l-2.21875 0q0 -0.640625 -0.46875 -1.0625q-0.46875 -0.421875 -1.265625 -0.421875q-0.71875 0 -1.1875 0.34375q-0.453125 0.328125 -0.453125 0.890625q0 0.515625 0.421875 0.796875q0.4375 0.28125 1.734375 0.5625q1.296875 0.28125 2.03125 0.6875q0.75 0.390625 1.109375 0.953125q0.375 0.546875 0.375 1.34375q0 1.328125 -1.109375 2.15625q-1.109375 0.828125 -2.890625 0.828125q-1.203125 0 -2.15625 -0.4375q-0.953125 -0.4375 -1.484375 -1.203125q-0.515625 -0.765625 -0.515625 -1.65625l2.140625 0q0.046875 0.78125 0.59375 1.21875q0.546875 0.421875 1.453125 0.421875q0.875 0 1.328125 -0.328125q0.453125 -0.34375 0.453125 -0.875z" fill-rule="nonzero"/><path fill="#000000" fill-opacity="0.0" d="m415.65616 172.98032l221.76376 0l0 33.259842l-221.76376 0z" fill-rule="evenodd"/><path fill="#000000" d="m436.1249 192.21773q-0.203125 2.109375 -1.578125 3.3125q-1.359375 1.1875 -3.625 1.1875q-1.578125 0 -2.796875 -0.75q-1.203125 -0.765625 -1.859375 -2.140625q-0.65625 -1.390625 -0.6875 -3.21875l0 -1.234375q0 -1.875 0.671875 -3.296875q0.671875 -1.4375 1.90625 -2.21875q1.25 -0.78125 2.875 -0.78125q2.203125 0 3.53125 1.203125q1.34375 1.1875 1.5625 3.375l-2.296875 0q-0.15625 -1.4375 -0.828125 -2.0625q-0.671875 -0.640625 -1.96875 -0.640625q-1.5 0 -2.3125 1.109375q-0.796875 1.09375 -0.8125 3.203125l0 1.1875q0 2.140625 0.765625 3.28125q0.765625 1.125 2.25 1.125q1.359375 0 2.03125 -0.609375q0.6875 -0.609375 0.875 -2.03125l2.296875 0zm1.4294128 -0.703125q0 -1.453125 0.578125 -2.609375q0.578125 -1.171875 1.609375 -1.78125q1.03125 -0.625 2.390625 -0.625q1.984375 0 3.234375 1.28125q1.25 1.28125 1.34375 3.40625l0.015625 0.515625q0 1.453125 -0.5625 2.609375q-0.5625 1.140625 -1.609375 1.78125q-1.046875 0.625 -2.40625 0.625q-2.09375 0 -3.34375 -1.390625q-1.25 -1.390625 -1.25 -3.703125l0 -0.109375zm2.21875 0.1875q0 1.515625 0.625 2.390625q0.625 0.859375 1.75 0.859375q1.125 0 1.734375 -0.875q0.625 -0.875 0.625 -2.5625q0 -1.5 -0.640625 -2.375q-0.640625 -0.875 -1.734375 -0.875q-1.09375 0 -1.734375 0.859375q-0.625 0.859375 -0.625 2.578125zm10.871674 -5.03125l0.0625 1.140625q1.09375 -1.3125 2.875 -1.3125q3.078125 0 3.125 3.515625l0 6.515625l-2.203125 0l0 -6.390625q0 -0.9375 -0.40625 -1.375q-0.40625 -0.453125 -1.328125 -0.453125q-1.34375 0 -2.0 1.203125l0 7.015625l-2.203125 0l0 -9.859375l2.078125 0zm13.844452 7.1875q0 -0.59375 -0.484375 -0.90625q-0.484375 -0.3125 -1.625 -0.546875q-1.125 -0.234375 -1.875 -0.609375q-1.65625 -0.796875 -1.65625 -2.3125q0 -1.28125 1.0625 -2.125q1.078125 -0.859375 2.734375 -0.859375q1.78125 0 2.859375 0.875q1.09375 0.859375 1.09375 2.265625l-2.21875 0q0 -0.640625 -0.46875 -1.0625q-0.46875 -0.421875 -1.265625 -0.421875q-0.71875 0 -1.1875 0.34375q-0.453125 0.328125 -0.453125 0.890625q0 0.515625 0.421875 0.796875q0.4375 0.28125 1.734375 0.5625q1.296875 0.28125 2.03125 0.6875q0.75 0.390625 1.109375 0.953125q0.375 0.546875 0.375 1.34375q0 1.328125 -1.109375 2.15625q-1.109375 0.828125 -2.890625 0.828125q-1.203125 0 -2.15625 -0.4375q-0.953125 -0.4375 -1.484375 -1.203125q-0.515625 -0.765625 -0.515625 -1.65625l2.140625 0q0.046875 0.78125 0.59375 1.21875q0.546875 0.421875 1.453125 0.421875q0.875 0 1.328125 -0.328125q0.453125 -0.34375 0.453125 -0.875zm6.8787537 -9.578125l0 2.390625l1.734375 0l0 1.640625l-1.734375 0l0 5.5q0 0.5625 0.21875 0.8125q0.234375 0.25 0.796875 0.25q0.390625 0 0.78125 -0.078125l0 1.703125q-0.75 0.21875 -1.453125 0.21875q-2.5625 0 -2.5625 -2.8125l0 -5.59375l-1.609375 0l0 -1.640625l1.609375 0l0 -2.390625l2.21875 0zm8.594177 4.421875q-0.4375 -0.078125 -0.90625 -0.078125q-1.515625 0 -2.046875 1.171875l0 6.734375l-2.21875 0l0 -9.859375l2.125 0l0.046875 1.109375q0.796875 -1.28125 2.21875 -1.28125q0.484375 0 0.78125 0.125l0 2.078125zm7.371338 6.859375q-0.984375 1.15625 -2.765625 1.15625q-1.609375 0 -2.4375 -0.9375q-0.828125 -0.9375 -0.828125 -2.71875l0 -6.390625l2.21875 0l0 6.359375q0 1.875 1.5625 1.875q1.609375 0 2.171875 -1.15625l0 -7.078125l2.21875 0l0 9.859375l-2.09375 0l-0.046875 -0.96875zm8.444733 -0.609375q0.828125 0 1.375 -0.484375q0.546875 -0.484375 0.578125 -1.203125l2.09375 0q-0.046875 0.921875 -0.59375 1.71875q-0.53125 0.796875 -1.453125 1.265625q-0.90625 0.46875 -1.984375 0.46875q-2.0625 0 -3.28125 -1.34375q-1.203125 -1.34375 -1.203125 -3.703125l0 -0.21875q0 -2.25 1.203125 -3.59375q1.203125 -1.359375 3.28125 -1.359375q1.75 0 2.859375 1.03125q1.109375 1.015625 1.171875 2.671875l-2.09375 0q-0.03125 -0.84375 -0.578125 -1.390625q-0.546875 -0.546875 -1.375 -0.546875q-1.078125 0 -1.671875 0.78125q-0.578125 0.78125 -0.578125 2.359375l0 0.359375q0 1.609375 0.578125 2.40625q0.578125 0.78125 1.671875 0.78125zm8.484131 -10.671875l0 2.390625l1.734375 0l0 1.640625l-1.734375 0l0 5.5q0 0.5625 0.21875 0.8125q0.234375 0.25 0.796875 0.25q0.390625 0 0.78125 -0.078125l0 1.703125q-0.75 0.21875 -1.453125 0.21875q-2.5625 0 -2.5625 -2.8125l0 -5.59375l-1.609375 0l0 -1.640625l1.609375 0l0 -2.390625l2.21875 0zm2.7426453 7.234375q0 -1.453125 0.578125 -2.609375q0.578125 -1.171875 1.609375 -1.78125q1.03125 -0.625 2.390625 -0.625q1.9843445 0 3.2343445 1.28125q1.25 1.28125 1.34375 3.40625l0.015625 0.515625q0 1.453125 -0.5625 2.609375q-0.5625 1.140625 -1.609375 1.78125q-1.046875 0.625 -2.4062195 0.625q-2.09375 0 -3.34375 -1.390625q-1.25 -1.390625 -1.25 -3.703125l0 -0.109375zm2.21875 0.1875q0 1.515625 0.625 2.390625q0.625 0.859375 1.75 0.859375q1.1249695 0 1.7343445 -0.875q0.625 -0.875 0.625 -2.5625q0 -1.5 -0.640625 -2.375q-0.640625 -0.875 -1.7343445 -0.875q-1.09375 0 -1.734375 0.859375q-0.625 0.859375 -0.625 2.578125zm13.981049 -3.0q-0.4375 -0.078125 -0.90625 -0.078125q-1.515625 0 -2.046875 1.171875l0 6.734375l-2.21875 0l0 -9.859375l2.125 0l0.046875 1.109375q0.796875 -1.28125 2.21875 -1.28125q0.484375 0 0.78125 0.125l0 2.078125zm5.626526 2.8125q0 -1.453125 0.578125 -2.609375q0.578125 -1.171875 1.609375 -1.78125q1.03125 -0.625 2.390625 -0.625q1.984375 0 3.234375 1.28125q1.25 1.28125 1.34375 3.40625l0.015625 0.515625q0 1.453125 -0.5625 2.609375q-0.5625 1.140625 -1.609375 1.78125q-1.046875 0.625 -2.40625 0.625q-2.09375 0 -3.34375 -1.390625q-1.25 -1.390625 -1.25 -3.703125l0 -0.109375zm2.21875 0.1875q0 1.515625 0.625 2.390625q0.625 0.859375 1.75 0.859375q1.125 0 1.734375 -0.875q0.625 -0.875 0.625 -2.5625q0 -1.5 -0.640625 -2.375q-0.640625 -0.875 -1.734375 -0.875q-1.09375 0 -1.734375 0.859375q-0.625 0.859375 -0.625 2.578125zm12.15686 2.015625l2.09375 -7.046875l2.28125 0l-3.421875 9.859375l-1.921875 0l-3.4375 -9.859375l2.296875 0l2.109375 7.046875zm9.968811 3.0q-2.09375 0 -3.40625 -1.328125q-1.3125 -1.328125 -1.3125 -3.53125l0 -0.28125q0 -1.46875 0.5625 -2.625q0.578125 -1.171875 1.609375 -1.8125q1.03125 -0.640625 2.296875 -0.640625q2.015625 0 3.109375 1.28125q1.09375 1.28125 1.09375 3.625l0 0.890625l-6.4375 0q0.109375 1.234375 0.8125 1.953125q0.71875 0.703125 1.8125 0.703125q1.515625 0 2.46875 -1.234375l1.203125 1.140625q-0.59375 0.875 -1.59375 1.375q-0.984375 0.484375 -2.21875 0.484375zm-0.265625 -8.453125q-0.90625 0 -1.46875 0.640625q-0.5625 0.640625 -0.703125 1.78125l4.203125 0l0 -0.171875q-0.0625 -1.109375 -0.59375 -1.671875q-0.515625 -0.578125 -1.4375 -0.578125zm11.105103 0.4375q-0.4375 -0.078125 -0.90625 -0.078125q-1.515625 0 -2.046875 1.171875l0 6.734375l-2.21875 0l0 -9.859375l2.125 0l0.046875 1.109375q0.796875 -1.28125 2.21875 -1.28125q0.484375 0 0.78125 0.125l0 2.078125zm3.746338 7.828125l-2.203125 0l0 -14.0l2.203125 0l0 14.0zm1.9985962 -5.015625q0 -1.453125 0.578125 -2.609375q0.578125 -1.171875 1.609375 -1.78125q1.03125 -0.625 2.390625 -0.625q1.984375 0 3.234375 1.28125q1.25 1.28125 1.34375 3.40625l0.015625 0.515625q0 1.453125 -0.5625 2.609375q-0.5625 1.140625 -1.609375 1.78125q-1.046875 0.625 -2.40625 0.625q-2.09375 0 -3.34375 -1.390625q-1.25 -1.390625 -1.25 -3.703125l0 -0.109375zm2.21875 0.1875q0 1.515625 0.625 2.390625q0.625 0.859375 1.75 0.859375q1.125 0 1.734375 -0.875q0.625 -0.875 0.625 -2.5625q0 -1.5 -0.640625 -2.375q-0.640625 -0.875 -1.734375 -0.875q-1.09375 0 -1.734375 0.859375q-0.625 0.859375 -0.625 2.578125zm14.699829 4.828125q-0.140625 -0.28125 -0.25 -0.921875q-1.046875 1.109375 -2.578125 1.109375q-1.484375 0 -2.4375 -0.84375q-0.9375 -0.859375 -0.9375 -2.109375q0 -1.578125 1.171875 -2.40625q1.171875 -0.84375 3.359375 -0.84375l1.359375 0l0 -0.65625q0 -0.765625 -0.4375 -1.21875q-0.421875 -0.46875 -1.296875 -0.46875q-0.765625 0 -1.25 0.390625q-0.46875 0.375 -0.46875 0.953125l-2.21875 0q0 -0.8125 0.53125 -1.515625q0.546875 -0.703125 1.46875 -1.09375q0.921875 -0.40625 2.0625 -0.40625q1.734375 0 2.75 0.875q1.03125 0.859375 1.0625 2.4375l0 4.4375q0 1.328125 0.375 2.125l0 0.15625l-2.265625 0zm-2.421875 -1.59375q0.65625 0 1.234375 -0.3125q0.578125 -0.328125 0.875 -0.859375l0 -1.859375l-1.203125 0q-1.234375 0 -1.859375 0.4375q-0.609375 0.421875 -0.609375 1.203125q0 0.640625 0.421875 1.015625q0.421875 0.375 1.140625 0.375zm6.2183228 -3.40625q0 -2.28125 1.046875 -3.65625q1.0625 -1.375 2.84375 -1.375q1.5625 0 2.53125 1.078125l0 -5.046875l2.21875 0l0 14.0l-2.015625 0l-0.109375 -1.015625q-0.984375 1.203125 -2.640625 1.203125q-1.734375 0 -2.8125 -1.390625q-1.0625 -1.40625 -1.0625 -3.796875zm2.21875 0.1875q0 1.5 0.578125 2.34375q0.578125 0.84375 1.640625 0.84375q1.359375 0 1.984375 -1.203125l0 -4.21875q-0.609375 -1.171875 -1.96875 -1.171875q-1.078125 0 -1.65625 0.859375q-0.578125 0.84375 -0.578125 2.546875zm14.249329 2.140625q0 -0.59375 -0.484375 -0.90625q-0.484375 -0.3125 -1.625 -0.546875q-1.125 -0.234375 -1.875 -0.609375q-1.65625 -0.796875 -1.65625 -2.3125q0 -1.28125 1.0625 -2.125q1.078125 -0.859375 2.734375 -0.859375q1.78125 0 2.859375 0.875q1.09375 0.859375 1.09375 2.265625l-2.21875 0q0 -0.640625 -0.46875 -1.0625q-0.46875 -0.421875 -1.265625 -0.421875q-0.71875 0 -1.1875 0.34375q-0.453125 0.328125 -0.453125 0.890625q0 0.515625 0.421875 0.796875q0.4375 0.28125 1.734375 0.5625q1.296875 0.28125 2.03125 0.6875q0.75 0.390625 1.109375 0.953125q0.375 0.546875 0.375 1.34375q0 1.328125 -1.109375 2.15625q-1.109375 0.828125 -2.890625 0.828125q-1.203125 0 -2.15625 -0.4375q-0.953125 -0.4375 -1.484375 -1.203125q-0.515625 -0.765625 -0.515625 -1.65625l2.140625 0q0.046875 0.78125 0.59375 1.21875q0.546875 0.421875 1.453125 0.421875q0.875 0 1.328125 -0.328125q0.453125 -0.34375 0.453125 -0.875z" fill-rule="nonzero"/><path fill="#ff9f9f" d="m776.34906 53.594646l0 0c0 -9.184452 7.4102173 -16.629921 16.551208 -16.629921l0 0c4.3896484 0 8.599487 1.7520752 11.70343 4.8707886c3.1039429 3.1187172 4.8477173 7.3486023 4.8477173 11.759132l0 0c0 9.184452 -7.4102173 16.629917 -16.551147 16.629917l0 0c-9.140991 0 -16.551208 -7.445465 -16.551208 -16.629917z" fill-rule="evenodd"/><path fill="#000000" d="m794.8687 54.37652q-1.921875 -0.546875 -2.8125 -1.359375q-0.875 -0.8125 -0.875 -2.0q0 -1.34375 1.078125 -2.21875q1.078125 -0.875 2.796875 -0.875q1.171875 0 2.078125 0.453125q0.921875 0.453125 1.421875 1.25q0.515625 0.796875 0.515625 1.734375l-1.515625 0q0 -1.03125 -0.65625 -1.609375q-0.65625 -0.59375 -1.84375 -0.59375q-1.109375 0 -1.734375 0.484375q-0.625 0.484375 -0.625 1.359375q0 0.6875 0.59375 1.171875q0.59375 0.484375 2.0 0.890625q1.421875 0.390625 2.21875 0.875q0.8125 0.46875 1.1875 1.109375q0.390625 0.640625 0.390625 1.515625q0 1.375 -1.078125 2.21875q-1.078125 0.828125 -2.875 0.828125q-1.171875 0 -2.1875 -0.453125q-1.015625 -0.453125 -1.578125 -1.234375q-0.546875 -0.78125 -0.546875 -1.765625l1.515625 0q0 1.03125 0.75 1.625q0.765625 0.59375 2.046875 0.59375q1.1875 0 1.8125 -0.484375q0.640625 -0.484375 0.640625 -1.3125q0 -0.84375 -0.59375 -1.296875q-0.578125 -0.453125 -2.125 -0.90625z" fill-rule="nonzero"/><path fill="#000000" fill-opacity="0.0" d="m841.7874 36.964565l200.78741 0l0 33.259846l-200.78741 0z" fill-rule="evenodd"/><path fill="#000000" d="m859.06866 57.09261q0 -0.875 -0.625 -1.34375q-0.609375 -0.46875 -2.21875 -0.953125q-1.59375 -0.484375 -2.546875 -1.078125q-1.8125 -1.140625 -1.8125 -2.96875q0 -1.609375 1.3125 -2.640625q1.3125 -1.046875 3.390625 -1.046875q1.390625 0 2.46875 0.515625q1.09375 0.515625 1.703125 1.453125q0.625 0.9375 0.625 2.09375l-2.296875 0q0 -1.046875 -0.65625 -1.625q-0.640625 -0.59375 -1.859375 -0.59375q-1.125 0 -1.75 0.484375q-0.625 0.484375 -0.625 1.34375q0 0.734375 0.671875 1.21875q0.671875 0.484375 2.21875 0.953125q1.546875 0.453125 2.484375 1.046875q0.9375 0.59375 1.375 1.359375q0.4375 0.75 0.4375 1.765625q0 1.65625 -1.265625 2.640625q-1.265625 0.984375 -3.453125 0.984375q-1.4375 0 -2.640625 -0.53125q-1.203125 -0.546875 -1.875 -1.484375q-0.671875 -0.9375 -0.671875 -2.1875l2.3125 0q0 1.140625 0.734375 1.765625q0.75 0.609375 2.140625 0.609375q1.203125 0 1.8125 -0.484375q0.609375 -0.484375 0.609375 -1.296875zm6.8843384 -8.828125l0 2.390625l1.734375 0l0 1.640625l-1.734375 0l0 5.5q0 0.5625 0.21875 0.8125q0.234375 0.25 0.796875 0.25q0.390625 0 0.78125 -0.078125l0 1.703125q-0.75 0.21875 -1.453125 0.21875q-2.5625 0 -2.5625 -2.8125l0 -5.59375l-1.609375 0l0 -1.640625l1.609375 0l0 -2.390625l2.21875 0zm8.594177 4.421875q-0.4375 -0.078125 -0.90625 -0.078125q-1.515625 0 -2.046875 1.171875l0 6.734375l-2.21875 0l0 -9.859375l2.125 0l0.046875 1.109375q0.796875 -1.28125 2.21875 -1.28125q0.484375 0 0.78125 0.125l0 2.078125zm7.0041504 7.828125q-0.140625 -0.28125 -0.25 -0.921875q-1.046875 1.109375 -2.578125 1.109375q-1.484375 0 -2.4375 -0.84375q-0.9375 -0.859375 -0.9375 -2.109375q0 -1.578125 1.171875 -2.40625q1.171875 -0.84375 3.359375 -0.84375l1.359375 0l0 -0.65625q0 -0.765625 -0.4375 -1.21875q-0.421875 -0.46875 -1.296875 -0.46875q-0.765625 0 -1.25 0.390625q-0.46875 0.375 -0.46875 0.953125l-2.21875 0q0 -0.8125 0.53125 -1.515625q0.546875 -0.703125 1.46875 -1.09375q0.921875 -0.40625 2.0625 -0.40625q1.734375 0 2.75 0.875q1.03125 0.859375 1.0625 2.4375l0 4.4375q0 1.328125 0.375 2.125l0 0.15625l-2.265625 0zm-2.421875 -1.59375q0.65625 0 1.234375 -0.3125q0.578125 -0.328125 0.875 -0.859375l0 -1.859375l-1.203125 0q-1.234375 0 -1.859375 0.4375q-0.609375 0.421875 -0.609375 1.203125q0 0.640625 0.421875 1.015625q0.421875 0.375 1.140625 0.375zm9.405823 -10.65625l0 2.390625l1.734375 0l0 1.640625l-1.734375 0l0 5.5q0 0.5625 0.21875 0.8125q0.234375 0.25 0.796875 0.25q0.390625 0 0.78125 -0.078125l0 1.703125q-0.75 0.21875 -1.453125 0.21875q-2.5625 0 -2.5625 -2.8125l0 -5.59375l-1.609375 0l0 -1.640625l1.609375 0l0 -2.390625l2.21875 0zm7.7660522 12.4375q-2.09375 0 -3.40625 -1.328125q-1.3125 -1.328125 -1.3125 -3.53125l0 -0.28125q0 -1.46875 0.5625 -2.625q0.578125 -1.171875 1.609375 -1.8125q1.03125 -0.640625 2.296875 -0.640625q2.015625 0 3.109375 1.28125q1.09375 1.28125 1.09375 3.625l0 0.890625l-6.4375 0q0.109375 1.234375 0.8125 1.953125q0.71875 0.703125 1.8125 0.703125q1.515625 0 2.46875 -1.234375l1.203125 1.140625q-0.59375 0.875 -1.59375 1.375q-0.984375 0.484375 -2.21875 0.484375zm-0.265625 -8.453125q-0.90625 0 -1.46875 0.640625q-0.5625 0.640625 -0.703125 1.78125l4.203125 0l0 -0.171875q-0.0625 -1.109375 -0.59375 -1.671875q-0.515625 -0.578125 -1.4375 -0.578125zm5.5582275 3.265625q0 -2.296875 1.078125 -3.65625q1.078125 -1.375 2.859375 -1.375q1.6875 0 2.65625 1.171875l0.09375 -1.0l2.0 0l0 9.5625q0 1.9375 -1.21875 3.046875q-1.203125 1.1250038 -3.25 1.1250038q-1.078125 0 -2.109375 -0.4531288q-1.03125 -0.4375 -1.578125 -1.171875l1.046875 -1.328125q1.03125 1.203125 2.515625 1.203125q1.109375 0 1.734375 -0.59375q0.640625 -0.59375 0.640625 -1.75l0 -0.671875q-0.953125 1.078125 -2.546875 1.078125q-1.734375 0 -2.828125 -1.375q-1.09375 -1.375 -1.09375 -3.8125zm2.203125 0.1875q0 1.484375 0.59375 2.34375q0.609375 0.84375 1.6875 0.84375q1.34375 0 1.984375 -1.140625l0 -4.34375q-0.625 -1.109375 -1.96875 -1.109375q-1.09375 0 -1.703125 0.859375q-0.59375 0.859375 -0.59375 2.546875zm12.201111 1.640625l2.015625 -6.6875l2.359375 0l-3.921875 11.359375q-0.90625 2.4843788 -3.0625 2.4843788q-0.484375 0 -1.0625 -0.171875l0 -1.7031288l0.421875 0.015625q0.828125 0 1.25 -0.3125q0.421875 -0.296875 0.671875 -1.015625l0.328125 -0.84375l-3.46875 -9.8125l2.390625 0l2.078125 6.6875zm18.915527 -1.65625q0 2.28125 -1.046875 3.65625q-1.03125 1.359375 -2.78125 1.359375q-1.625 0 -2.59375 -1.078125l0 4.687504l-2.21875 0l0 -13.656254l2.046875 0l0.09375 1.0q0.96875 -1.171875 2.640625 -1.171875q1.8125 0 2.828125 1.34375q1.03125 1.34375 1.03125 3.71875l0 0.140625zm-2.203125 -0.1875q0 -1.484375 -0.59375 -2.34375q-0.578125 -0.859375 -1.671875 -0.859375q-1.359375 0 -1.953125 1.109375l0 4.375q0.59375 1.15625 1.96875 1.15625q1.0625 0 1.65625 -0.84375q0.59375 -0.859375 0.59375 -2.59375zm9.95636 5.015625q-0.140625 -0.28125 -0.25 -0.921875q-1.046875 1.109375 -2.578125 1.109375q-1.484375 0 -2.4375 -0.84375q-0.9375 -0.859375 -0.9375 -2.109375q0 -1.578125 1.171875 -2.40625q1.171875 -0.84375 3.359375 -0.84375l1.359375 0l0 -0.65625q0 -0.765625 -0.4375 -1.21875q-0.421875 -0.46875 -1.296875 -0.46875q-0.765625 0 -1.25 0.390625q-0.46875 0.375 -0.46875 0.953125l-2.21875 0q0 -0.8125 0.53125 -1.515625q0.546875 -0.703125 1.46875 -1.09375q0.921875 -0.40625 2.0625 -0.40625q1.734375 0 2.75 0.875q1.03125 0.859375 1.0625 2.4375l0 4.4375q0 1.328125 0.375 2.125l0 0.15625l-2.265625 0zm-2.421875 -1.59375q0.65625 0 1.234375 -0.3125q0.578125 -0.328125 0.875 -0.859375l0 -1.859375l-1.203125 0q-1.234375 0 -1.859375 0.4375q-0.609375 0.421875 -0.609375 1.203125q0 0.640625 0.421875 1.015625q0.421875 0.375 1.140625 0.375zm9.405823 -10.65625l0 2.390625l1.734375 0l0 1.640625l-1.734375 0l0 5.5q0 0.5625 0.21875 0.8125q0.234375 0.25 0.796875 0.25q0.390625 0 0.78125 -0.078125l0 1.703125q-0.75 0.21875 -1.453125 0.21875q-2.5625 0 -2.5625 -2.8125l0 -5.59375l-1.609375 0l0 -1.640625l1.609375 0l0 -2.390625l2.21875 0zm6.2036133 0l0 2.390625l1.734375 0l0 1.640625l-1.734375 0l0 5.5q0 0.5625 0.21875 0.8125q0.234375 0.25 0.796875 0.25q0.390625 0 0.78125 -0.078125l0 1.703125q-0.75 0.21875 -1.453125 0.21875q-2.5625 0 -2.5625 -2.8125l0 -5.59375l-1.609375 0l0 -1.640625l1.609375 0l0 -2.390625l2.21875 0zm7.7660522 12.4375q-2.09375 0 -3.40625 -1.328125q-1.3125 -1.328125 -1.3125 -3.53125l0 -0.28125q0 -1.46875 0.5625 -2.625q0.578125 -1.171875 1.609375 -1.8125q1.03125 -0.640625 2.296875 -0.640625q2.015625 0 3.109375 1.28125q1.09375 1.28125 1.09375 3.625l0 0.890625l-6.4375 0q0.109375 1.234375 0.8125 1.953125q0.71875 0.703125 1.8125 0.703125q1.515625 0 2.46875 -1.234375l1.203125 1.140625q-0.59375 0.875 -1.59375 1.375q-0.984375 0.484375 -2.21875 0.484375zm-0.265625 -8.453125q-0.90625 0 -1.46875 0.640625q-0.5625 0.640625 -0.703125 1.78125l4.203125 0l0 -0.171875q-0.0625 -1.109375 -0.59375 -1.671875q-0.515625 -0.578125 -1.4375 -0.578125zm11.105103 0.4375q-0.4375 -0.078125 -0.90625 -0.078125q-1.515625 0 -2.046875 1.171875l0 6.734375l-2.21875 0l0 -9.859375l2.125 0l0.046875 1.109375q0.796875 -1.28125 2.21875 -1.28125q0.484375 0 0.78125 0.125l0 2.078125zm3.449463 -2.03125l0.0625 1.140625q1.09375 -1.3125 2.875 -1.3125q3.078125 0 3.125 3.515625l0 6.515625l-2.203125 0l0 -6.390625q0 -0.9375 -0.40625 -1.375q-0.40625 -0.453125 -1.328125 -0.453125q-1.34375 0 -2.0 1.203125l0 7.015625l-2.203125 0l0 -9.859375l2.078125 0z" fill-rule="nonzero"/><path fill="#000000" fill-opacity="0.0" d="m841.7874 105.502625l200.78741 0l0 33.259842l-200.78741 0z" fill-rule="evenodd"/><path fill="#000000" d="m859.7718 123.42754l-5.328125 0l0 5.6250076l-2.3125 0l0 -13.265633l8.4375 0l0 1.859375l-6.125 0l0 3.953125l5.328125 0l0 1.828125zm7.9695435 5.6250076q-0.140625 -0.28125 -0.25 -0.921875q-1.046875 1.109375 -2.578125 1.109375q-1.484375 0 -2.4375 -0.84375q-0.9375 -0.8593826 -0.9375 -2.1093826q0 -1.578125 1.171875 -2.40625q1.171875 -0.84375 3.359375 -0.84375l1.359375 0l0 -0.65625q0 -0.765625 -0.4375 -1.21875q-0.421875 -0.46875 -1.296875 -0.46875q-0.765625 0 -1.25 0.390625q-0.46875 0.375 -0.46875 0.953125l-2.21875 0q0 -0.8125 0.53125 -1.515625q0.546875 -0.703125 1.46875 -1.09375q0.921875 -0.40625 2.0625 -0.40625q1.734375 0 2.75 0.875q1.03125 0.859375 1.0625 2.4375l0 4.4375q0 1.3281326 0.375 2.1250076l0 0.15625l-2.265625 0zm-2.421875 -1.5937576q0.65625 0 1.234375 -0.3125q0.578125 -0.328125 0.875 -0.859375l0 -1.859375l-1.203125 0q-1.234375 0 -1.859375 0.4375q-0.609375 0.421875 -0.609375 1.203125q0 0.640625 0.421875 1.015625q0.421875 0.375 1.140625 0.375zm10.687073 0.015625q0.828125 0 1.375 -0.484375q0.546875 -0.484375 0.578125 -1.203125l2.09375 0q-0.046875 0.921875 -0.59375 1.71875q-0.53125 0.7968826 -1.453125 1.2656326q-0.90625 0.46875 -1.984375 0.46875q-2.0625 0 -3.28125 -1.3437576q-1.203125 -1.34375 -1.203125 -3.703125l0 -0.21875q0 -2.25 1.203125 -3.59375q1.203125 -1.359375 3.28125 -1.359375q1.75 0 2.859375 1.03125q1.109375 1.015625 1.171875 2.671875l-2.09375 0q-0.03125 -0.84375 -0.578125 -1.390625q-0.546875 -0.546875 -1.375 -0.546875q-1.078125 0 -1.671875 0.78125q-0.578125 0.78125 -0.578125 2.359375l0 0.359375q0 1.609375 0.578125 2.40625q0.578125 0.78125 1.671875 0.78125zm8.484131 -10.671875l0 2.390625l1.734375 0l0 1.640625l-1.734375 0l0 5.5q0 0.5625 0.21875 0.8125q0.234375 0.25 0.796875 0.25q0.390625 0 0.78125 -0.078125l0 1.7031326q-0.75 0.21875 -1.453125 0.21875q-2.5625 0 -2.5625 -2.8125076l0 -5.59375l-1.609375 0l0 -1.640625l1.609375 0l0 -2.390625l2.21875 0zm2.7426147 7.234375q0 -1.453125 0.578125 -2.609375q0.578125 -1.171875 1.609375 -1.78125q1.03125 -0.625 2.390625 -0.625q1.984375 0 3.234375 1.28125q1.25 1.28125 1.34375 3.40625l0.015625 0.515625q0 1.453125 -0.5625 2.609375q-0.5625 1.140625 -1.609375 1.7812576q-1.046875 0.625 -2.40625 0.625q-2.09375 0 -3.34375 -1.3906326q-1.25 -1.390625 -1.25 -3.703125l0 -0.109375zm2.21875 0.1875q0 1.515625 0.625 2.390625q0.625 0.859375 1.75 0.859375q1.125 0 1.734375 -0.875q0.625 -0.875 0.625 -2.5625q0 -1.5 -0.640625 -2.375q-0.640625 -0.875 -1.734375 -0.875q-1.09375 0 -1.734375 0.859375q-0.625 0.859375 -0.625 2.578125zm13.981079 -3.0q-0.4375 -0.078125 -0.90625 -0.078125q-1.515625 0 -2.046875 1.171875l0 6.7343826l-2.21875 0l0 -9.859383l2.125 0l0.046875 1.109375q0.796875 -1.28125 2.21875 -1.28125q0.484375 0 0.78125 0.125l0 2.078125zm5.0041504 4.65625l2.015625 -6.6875l2.359375 0l-3.921875 11.359383q-0.90625 2.484375 -3.0625 2.484375q-0.484375 0 -1.0625 -0.171875l0 -1.703125l0.421875 0.015625q0.828125 0 1.25 -0.3125q0.421875 -0.296875 0.671875 -1.015625l0.328125 -0.84375l-3.46875 -9.812508l2.390625 0l2.078125 6.6875zm18.915466 -1.65625q0 2.28125 -1.046875 3.65625q-1.03125 1.3593826 -2.78125 1.3593826q-1.625 0 -2.59375 -1.078125l0 4.6875l-2.21875 0l0 -13.656258l2.046875 0l0.09375 1.0q0.96875 -1.171875 2.640625 -1.171875q1.8125 0 2.828125 1.34375q1.03125 1.34375 1.03125 3.71875l0 0.140625zm-2.203125 -0.1875q0 -1.484375 -0.59375 -2.34375q-0.578125 -0.859375 -1.671875 -0.859375q-1.359375 0 -1.953125 1.109375l0 4.375q0.59375 1.15625 1.96875 1.15625q1.0625 0 1.65625 -0.84375q0.59375 -0.859375 0.59375 -2.59375zm9.956421 5.0156326q-0.140625 -0.28125 -0.25 -0.921875q-1.046875 1.109375 -2.578125 1.109375q-1.484375 0 -2.4375 -0.84375q-0.9375 -0.8593826 -0.9375 -2.1093826q0 -1.578125 1.171875 -2.40625q1.171875 -0.84375 3.359375 -0.84375l1.359375 0l0 -0.65625q0 -0.765625 -0.4375 -1.21875q-0.421875 -0.46875 -1.296875 -0.46875q-0.765625 0 -1.25 0.390625q-0.46875 0.375 -0.46875 0.953125l-2.21875 0q0 -0.8125 0.53125 -1.515625q0.546875 -0.703125 1.46875 -1.09375q0.921875 -0.40625 2.0625 -0.40625q1.734375 0 2.75 0.875q1.03125 0.859375 1.0625 2.4375l0 4.4375q0 1.3281326 0.375 2.1250076l0 0.15625l-2.265625 0zm-2.421875 -1.5937576q0.65625 0 1.234375 -0.3125q0.578125 -0.328125 0.875 -0.859375l0 -1.859375l-1.203125 0q-1.234375 0 -1.859375 0.4375q-0.609375 0.421875 -0.609375 1.203125q0 0.640625 0.421875 1.015625q0.421875 0.375 1.140625 0.375zm9.405823 -10.65625l0 2.390625l1.734375 0l0 1.640625l-1.734375 0l0 5.5q0 0.5625 0.21875 0.8125q0.234375 0.25 0.796875 0.25q0.390625 0 0.78125 -0.078125l0 1.7031326q-0.75 0.21875 -1.453125 0.21875q-2.5625 0 -2.5625 -2.8125076l0 -5.59375l-1.609375 0l0 -1.640625l1.609375 0l0 -2.390625l2.21875 0zm6.2035522 0l0 2.390625l1.734375 0l0 1.640625l-1.734375 0l0 5.5q0 0.5625 0.21875 0.8125q0.234375 0.25 0.796875 0.25q0.390625 0 0.78125 -0.078125l0 1.7031326q-0.75 0.21875 -1.453125 0.21875q-2.5625 0 -2.5625 -2.8125076l0 -5.59375l-1.609375 0l0 -1.640625l1.609375 0l0 -2.390625l2.21875 0zm7.7660522 12.437508q-2.09375 0 -3.40625 -1.3281326q-1.3125 -1.328125 -1.3125 -3.53125l0 -0.28125q0 -1.46875 0.5625 -2.625q0.578125 -1.171875 1.609375 -1.8125q1.03125 -0.640625 2.296875 -0.640625q2.015625 0 3.109375 1.28125q1.09375 1.28125 1.09375 3.625l0 0.890625l-6.4375 0q0.109375 1.234375 0.8125 1.953125q0.71875 0.703125 1.8125 0.703125q1.515625 0 2.46875 -1.234375l1.203125 1.140625q-0.59375 0.8750076 -1.59375 1.3750076q-0.984375 0.484375 -2.21875 0.484375zm-0.265625 -8.453133q-0.90625 0 -1.46875 0.640625q-0.5625 0.640625 -0.703125 1.78125l4.203125 0l0 -0.171875q-0.0625 -1.109375 -0.59375 -1.671875q-0.515625 -0.578125 -1.4375 -0.578125zm11.105103 0.4375q-0.4375 -0.078125 -0.90625 -0.078125q-1.515625 0 -2.046875 1.171875l0 6.7343826l-2.21875 0l0 -9.859383l2.125 0l0.046875 1.109375q0.796875 -1.28125 2.21875 -1.28125q0.484375 0 0.78125 0.125l0 2.078125zm3.449463 -2.03125l0.0625 1.140625q1.09375 -1.3125 2.875 -1.3125q3.078125 0 3.125 3.515625l0 6.5156326l-2.203125 0l0 -6.3906326q0 -0.9375 -0.40625 -1.375q-0.40625 -0.453125 -1.328125 -0.453125q-1.34375 0 -2.0 1.203125l0 7.0156326l-2.203125 0l0 -9.859383l2.078125 0z" fill-rule="nonzero"/><path fill="#000000" fill-opacity="0.0" d="m841.7874 171.92258l200.78741 0l0 33.259842l-200.78741 0z" fill-rule="evenodd"/><path fill="#000000" d="m854.56866 195.47249l-2.296875 0l0 -13.265625l2.296875 0l0 13.265625zm4.671509 -9.859375l0.0625 1.140625q1.09375 -1.3125 2.875 -1.3125q3.078125 0 3.125 3.515625l0 6.515625l-2.203125 0l0 -6.390625q0 -0.9375 -0.40625 -1.375q-0.40625 -0.453125 -1.328125 -0.453125q-1.34375 0 -2.0 1.203125l0 7.015625l-2.203125 0l0 -9.859375l2.078125 0zm10.500732 1.078125q1.09375 -1.25 2.75 -1.25q3.140625 0 3.1875 3.59375l0 6.4375l-2.203125 0l0 -6.359375q0 -1.015625 -0.453125 -1.4375q-0.4375 -0.421875 -1.296875 -0.421875q-1.328125 0 -1.984375 1.171875l0 7.046875l-2.203125 0l0 -14.0l2.203125 0l0 5.21875zm12.513733 8.96875q-2.09375 0 -3.40625 -1.328125q-1.3125 -1.328125 -1.3125 -3.53125l0 -0.28125q0 -1.46875 0.5625 -2.625q0.578125 -1.171875 1.609375 -1.8125q1.03125 -0.640625 2.296875 -0.640625q2.015625 0 3.109375 1.28125q1.09375 1.28125 1.09375 3.625l0 0.890625l-6.4375 0q0.109375 1.234375 0.8125 1.953125q0.71875 0.703125 1.8125 0.703125q1.515625 0 2.46875 -1.234375l1.203125 1.140625q-0.59375 0.875 -1.59375 1.375q-0.984375 0.484375 -2.21875 0.484375zm-0.265625 -8.453125q-0.90625 0 -1.46875 0.640625q-0.5625 0.640625 -0.703125 1.78125l4.203125 0l0 -0.171875q-0.0625 -1.109375 -0.59375 -1.671875q-0.515625 -0.578125 -1.4375 -0.578125zm11.105103 0.4375q-0.4375 -0.078125 -0.90625 -0.078125q-1.515625 0 -2.046875 1.171875l0 6.734375l-2.21875 0l0 -9.859375l2.125 0l0.046875 1.109375q0.796875 -1.28125 2.21875 -1.28125q0.484375 0 0.78125 0.125l0 2.078125zm3.746338 7.828125l-2.203125 0l0 -9.859375l2.203125 0l0 9.859375zm-2.34375 -12.421875q0 -0.5 0.3125 -0.828125q0.328125 -0.34375 0.921875 -0.34375q0.609375 0 0.9375 0.34375q0.328125 0.328125 0.328125 0.828125q0 0.5 -0.328125 0.84375q-0.328125 0.328125 -0.9375 0.328125q-0.59375 0 -0.921875 -0.328125q-0.3125 -0.34375 -0.3125 -0.84375zm7.529907 0.171875l0 2.390625l1.734375 0l0 1.640625l-1.734375 0l0 5.5q0 0.5625 0.21875 0.8125q0.234375 0.25 0.796875 0.25q0.390625 0 0.78125 -0.078125l0 1.703125q-0.75 0.21875 -1.453125 0.21875q-2.5625 0 -2.5625 -2.8125l0 -5.59375l-1.609375 0l0 -1.640625l1.609375 0l0 -2.390625l2.21875 0zm9.312927 12.25q-0.140625 -0.28125 -0.25 -0.921875q-1.046875 1.109375 -2.578125 1.109375q-1.484375 0 -2.4375 -0.84375q-0.9375 -0.859375 -0.9375 -2.109375q0 -1.578125 1.171875 -2.40625q1.171875 -0.84375 3.359375 -0.84375l1.359375 0l0 -0.65625q0 -0.765625 -0.4375 -1.21875q-0.421875 -0.46875 -1.296875 -0.46875q-0.765625 0 -1.25 0.390625q-0.46875 0.375 -0.46875 0.953125l-2.21875 0q0 -0.8125 0.53125 -1.515625q0.546875 -0.703125 1.46875 -1.09375q0.921875 -0.40625 2.0625 -0.40625q1.734375 0 2.75 0.875q1.03125 0.859375 1.0625 2.4375l0 4.4375q0 1.328125 0.375 2.125l0 0.15625l-2.265625 0zm-2.421875 -1.59375q0.65625 0 1.234375 -0.3125q0.578125 -0.328125 0.875 -0.859375l0 -1.859375l-1.203125 0q-1.234375 0 -1.859375 0.4375q-0.609375 0.421875 -0.609375 1.203125q0 0.640625 0.421875 1.015625q0.421875 0.375 1.140625 0.375zm8.687073 -8.265625l0.0625 1.140625q1.09375 -1.3125 2.875 -1.3125q3.078125 0 3.125 3.515625l0 6.515625l-2.203125 0l0 -6.390625q0 -0.9375 -0.40625 -1.375q-0.40625 -0.453125 -1.328125 -0.453125q-1.34375 0 -2.0 1.203125l0 7.015625l-2.203125 0l0 -9.859375l2.078125 0zm12.375732 8.28125q0.828125 0 1.375 -0.484375q0.546875 -0.484375 0.578125 -1.203125l2.09375 0q-0.046875 0.921875 -0.59375 1.71875q-0.53125 0.796875 -1.453125 1.265625q-0.90625 0.46875 -1.984375 0.46875q-2.0625 0 -3.28125 -1.34375q-1.203125 -1.34375 -1.203125 -3.703125l0 -0.21875q0 -2.25 1.203125 -3.59375q1.203125 -1.359375 3.28125 -1.359375q1.75 0 2.859375 1.03125q1.109375 1.015625 1.171875 2.671875l-2.09375 0q-0.03125 -0.84375 -0.578125 -1.390625q-0.546875 -0.546875 -1.375 -0.546875q-1.078125 0 -1.671875 0.78125q-0.578125 0.78125 -0.578125 2.359375l0 0.359375q0 1.609375 0.578125 2.40625q0.578125 0.78125 1.671875 0.78125zm10.046631 1.765625q-2.09375 0 -3.40625 -1.328125q-1.3125 -1.328125 -1.3125 -3.53125l0 -0.28125q0 -1.46875 0.5625 -2.625q0.578125 -1.171875 1.609375 -1.8125q1.03125 -0.640625 2.296875 -0.640625q2.015625 0 3.109375 1.28125q1.09375 1.28125 1.09375 3.625l0 0.890625l-6.4375 0q0.109375 1.234375 0.8125 1.953125q0.71875 0.703125 1.8125 0.703125q1.515625 0 2.46875 -1.234375l1.203125 1.140625q-0.59375 0.875 -1.59375 1.375q-0.984375 0.484375 -2.21875 0.484375zm-0.265625 -8.453125q-0.90625 0 -1.46875 0.640625q-0.5625 0.640625 -0.703125 1.78125l4.203125 0l0 -0.171875q-0.0625 -1.109375 -0.59375 -1.671875q-0.515625 -0.578125 -1.4375 -0.578125z" fill-rule="nonzero"/><path fill="#ff9f9f" d="m1188.9528 126.34121l0 0c0 -9.184456 7.4454346 -16.629921 16.629883 -16.629921l0 0c4.4105225 0 8.640503 1.7520752 11.759155 4.8707886c3.1187744 3.1187134 4.8708496 7.3486023 4.8708496 11.759132l0 0c0 9.184456 -7.4455566 16.629921 -16.630005 16.629921l0 0c-9.184448 0 -16.629883 -7.445465 -16.629883 -16.629921z" fill-rule="evenodd"/><path fill="#000000" d="m1204.1516 132.2012l0 -11.374992l3.203125 0q1.484375 0 2.625 0.65625q1.140625 0.65625 1.765625 1.875q0.625 1.203125 0.625 2.765625l0 0.734375q0 1.6093674 -0.625 2.8281174q-0.609375 1.203125 -1.765625 1.859375q-1.15625 0.640625 -2.6875 0.65625l-3.140625 0zm1.5 -10.140617l0 8.906242l1.578125 0q1.734375 0 2.6875 -1.078125q0.96875 -1.078125 0.96875 -3.0624924l0 -0.671875q0 -1.9375 -0.90625 -3.0q-0.90625 -1.078125 -2.578125 -1.09375l-1.75 0z" fill-rule="nonzero"/><path fill="#ff9f9f" d="m1188.9528 59.391235l0 0c0 -9.184452 7.4101562 -16.629925 16.551147 -16.629925l0 0c4.3896484 0 8.599487 1.752079 11.703491 4.8707924c3.1038818 3.1187172 4.8477783 7.3486023 4.8477783 11.759132l0 0c0 9.184448 -7.4102783 16.629921 -16.55127 16.629921l0 0c-9.140991 0 -16.551147 -7.4454727 -16.551147 -16.629921z" fill-rule="evenodd"/><path fill="#000000" d="m1211.988 55.110607l-3.65625 0l0 10.140629l-1.5 0l0 -10.140629l-3.640625 0l0 -1.234375l8.796875 0l0 1.234375z" fill-rule="nonzero"/><path fill="#000000" fill-opacity="0.0" d="m1254.3911 42.761154l200.78735 0l0 33.259842l-200.78735 0z" fill-rule="evenodd"/><path fill="#000000" d="m1274.3286 54.904823l-4.140625 0l0 11.40625l-2.28125 0l0 -11.40625l-4.109375 0l0 -1.859375l10.53125 0l0 1.859375zm5.043091 11.59375q-2.09375 0 -3.40625 -1.328125q-1.3125 -1.328125 -1.3125 -3.53125l0 -0.28125q0 -1.46875 0.5625 -2.625q0.578125 -1.171875 1.609375 -1.8125q1.03125 -0.640625 2.296875 -0.640625q2.015625 0 3.109375 1.28125q1.09375 1.28125 1.09375 3.625l0 0.890625l-6.4375 0q0.109375 1.234375 0.8125 1.953125q0.71875 0.703125 1.8125 0.703125q1.515625 0 2.46875 -1.234375l1.203125 1.140625q-0.59375 0.875 -1.59375 1.375q-0.984375 0.484375 -2.21875 0.484375zm-0.265625 -8.453125q-0.90625 0 -1.46875 0.640625q-0.5625 0.640625 -0.703125 1.78125l4.203125 0l0 -0.171875q-0.0625 -1.109375 -0.59375 -1.671875q-0.515625 -0.578125 -1.4375 -0.578125zm8.026978 -1.59375l0.0625 1.03125q1.03125 -1.203125 2.84375 -1.203125q1.96875 0 2.703125 1.5q1.078125 -1.5 3.015625 -1.5q1.640625 0 2.4375 0.90625q0.796875 0.890625 0.8125 2.640625l0 6.484375l-2.21875 0l0 -6.40625q0 -0.9375 -0.40625 -1.375q-0.40625 -0.4375 -1.359375 -0.4375q-0.75 0 -1.234375 0.40625q-0.46875 0.390625 -0.671875 1.046875l0.015625 6.765625l-2.21875 0l0 -6.484375q-0.046875 -1.734375 -1.765625 -1.734375q-1.328125 0 -1.890625 1.078125l0 7.140625l-2.21875 0l0 -9.859375l2.09375 0zm22.78003 5.03125q0 2.28125 -1.046875 3.65625q-1.03125 1.359375 -2.78125 1.359375q-1.625 0 -2.59375 -1.078125l0 4.6875l-2.21875 0l0 -13.65625l2.046875 0l0.09375 1.0q0.96875 -1.171875 2.640625 -1.171875q1.8125 0 2.828125 1.34375q1.03125 1.34375 1.03125 3.71875l0 0.140625zm-2.203125 -0.1875q0 -1.484375 -0.59375 -2.34375q-0.578125 -0.859375 -1.671875 -0.859375q-1.359375 0 -1.953125 1.109375l0 4.375q0.59375 1.15625 1.96875 1.15625q1.0625 0 1.65625 -0.84375q0.59375 -0.859375 0.59375 -2.59375zm6.425049 5.015625l-2.203125 0l0 -14.0l2.203125 0l0 14.0zm8.295532 0q-0.140625 -0.28125 -0.25 -0.921875q-1.046875 1.109375 -2.578125 1.109375q-1.484375 0 -2.4375 -0.84375q-0.9375 -0.859375 -0.9375 -2.109375q0 -1.578125 1.171875 -2.40625q1.171875 -0.84375 3.359375 -0.84375l1.359375 0l0 -0.65625q0 -0.765625 -0.4375 -1.21875q-0.421875 -0.46875 -1.296875 -0.46875q-0.765625 0 -1.25 0.390625q-0.46875 0.375 -0.46875 0.953125l-2.21875 0q0 -0.8125 0.53125 -1.515625q0.546875 -0.703125 1.46875 -1.09375q0.921875 -0.40625 2.0625 -0.40625q1.734375 0 2.75 0.875q1.03125 0.859375 1.0625 2.4375l0 4.4375q0 1.328125 0.375 2.125l0 0.15625l-2.265625 0zm-2.421875 -1.59375q0.65625 0 1.234375 -0.3125q0.578125 -0.328125 0.875 -0.859375l0 -1.859375l-1.203125 0q-1.234375 0 -1.859375 0.4375q-0.609375 0.421875 -0.609375 1.203125q0 0.640625 0.421875 1.015625q0.421875 0.375 1.140625 0.375zm9.405884 -10.65625l0 2.390625l1.734375 0l0 1.640625l-1.734375 0l0 5.5q0 0.5625 0.21875 0.8125q0.234375 0.25 0.796875 0.25q0.390625 0 0.78125 -0.078125l0 1.703125q-0.75 0.21875 -1.453125 0.21875q-2.5625 0 -2.5625 -2.8125l0 -5.59375l-1.609375 0l0 -1.640625l1.609375 0l0 -2.390625l2.21875 0zm7.765991 12.4375q-2.09375 0 -3.40625 -1.328125q-1.3125 -1.328125 -1.3125 -3.53125l0 -0.28125q0 -1.46875 0.5625 -2.625q0.578125 -1.171875 1.609375 -1.8125q1.03125 -0.640625 2.296875 -0.640625q2.015625 0 3.109375 1.28125q1.09375 1.28125 1.09375 3.625l0 0.890625l-6.4375 0q0.109375 1.234375 0.8125 1.953125q0.71875 0.703125 1.8125 0.703125q1.515625 0 2.46875 -1.234375l1.203125 1.140625q-0.59375 0.875 -1.59375 1.375q-0.984375 0.484375 -2.21875 0.484375zm-0.265625 -8.453125q-0.90625 0 -1.46875 0.640625q-0.5625 0.640625 -0.703125 1.78125l4.203125 0l0 -0.171875q-0.0625 -1.109375 -0.59375 -1.671875q-0.515625 -0.578125 -1.4375 -0.578125zm19.219727 3.4375q0 2.28125 -1.046875 3.65625q-1.03125 1.359375 -2.78125 1.359375q-1.625 0 -2.59375 -1.078125l0 4.6875l-2.21875 0l0 -13.65625l2.046875 0l0.09375 1.0q0.96875 -1.171875 2.640625 -1.171875q1.8125 0 2.828125 1.34375q1.03125 1.34375 1.03125 3.71875l0 0.140625zm-2.203125 -0.1875q0 -1.484375 -0.59375 -2.34375q-0.578125 -0.859375 -1.671875 -0.859375q-1.359375 0 -1.953125 1.109375l0 4.375q0.59375 1.15625 1.96875 1.15625q1.0625 0 1.65625 -0.84375q0.59375 -0.859375 0.59375 -2.59375zm9.956421 5.015625q-0.140625 -0.28125 -0.25 -0.921875q-1.046875 1.109375 -2.578125 1.109375q-1.484375 0 -2.4375 -0.84375q-0.9375 -0.859375 -0.9375 -2.109375q0 -1.578125 1.171875 -2.40625q1.171875 -0.84375 3.359375 -0.84375l1.359375 0l0 -0.65625q0 -0.765625 -0.4375 -1.21875q-0.421875 -0.46875 -1.296875 -0.46875q-0.765625 0 -1.25 0.390625q-0.46875 0.375 -0.46875 0.953125l-2.21875 0q0 -0.8125 0.53125 -1.515625q0.546875 -0.703125 1.46875 -1.09375q0.921875 -0.40625 2.0625 -0.40625q1.734375 0 2.75 0.875q1.03125 0.859375 1.0625 2.4375l0 4.4375q0 1.328125 0.375 2.125l0 0.15625l-2.265625 0zm-2.421875 -1.59375q0.65625 0 1.234375 -0.3125q0.578125 -0.328125 0.875 -0.859375l0 -1.859375l-1.203125 0q-1.234375 0 -1.859375 0.4375q-0.609375 0.421875 -0.609375 1.203125q0 0.640625 0.421875 1.015625q0.421875 0.375 1.140625 0.375zm9.405762 -10.65625l0 2.390625l1.734375 0l0 1.640625l-1.734375 0l0 5.5q0 0.5625 0.21875 0.8125q0.234375 0.25 0.796875 0.25q0.390625 0 0.78125 -0.078125l0 1.703125q-0.75 0.21875 -1.453125 0.21875q-2.5625 0 -2.5625 -2.8125l0 -5.59375l-1.609375 0l0 -1.640625l1.609375 0l0 -2.390625l2.21875 0zm6.2036133 0l0 2.390625l1.734375 0l0 1.640625l-1.734375 0l0 5.5q0 0.5625 0.21875 0.8125q0.234375 0.25 0.796875 0.25q0.390625 0 0.78125 -0.078125l0 1.703125q-0.75 0.21875 -1.453125 0.21875q-2.5625 0 -2.5625 -2.8125l0 -5.59375l-1.609375 0l0 -1.640625l1.609375 0l0 -2.390625l2.21875 0zm7.765991 12.4375q-2.09375 0 -3.40625 -1.328125q-1.3125 -1.328125 -1.3125 -3.53125l0 -0.28125q0 -1.46875 0.5625 -2.625q0.578125 -1.171875 1.609375 -1.8125q1.03125 -0.640625 2.296875 -0.640625q2.015625 0 3.109375 1.28125q1.09375 1.28125 1.09375 3.625l0 0.890625l-6.4375 0q0.109375 1.234375 0.8125 1.953125q0.71875 0.703125 1.8125 0.703125q1.515625 0 2.46875 -1.234375l1.203125 1.140625q-0.59375 0.875 -1.59375 1.375q-0.984375 0.484375 -2.21875 0.484375zm-0.265625 -8.453125q-0.90625 0 -1.46875 0.640625q-0.5625 0.640625 -0.703125 1.78125l4.203125 0l0 -0.171875q-0.0625 -1.109375 -0.59375 -1.671875q-0.515625 -0.578125 -1.4375 -0.578125zm11.105103 0.4375q-0.4375 -0.078125 -0.90625 -0.078125q-1.515625 0 -2.046875 1.171875l0 6.734375l-2.21875 0l0 -9.859375l2.125 0l0.046875 1.109375q0.796875 -1.28125 2.21875 -1.28125q0.484375 0 0.78125 0.125l0 2.078125zm3.449463 -2.03125l0.0625 1.140625q1.09375 -1.3125 2.875 -1.3125q3.078125 0 3.125 3.515625l0 6.515625l-2.203125 0l0 -6.390625q0 -0.9375 -0.40625 -1.375q-0.40625 -0.453125 -1.328125 -0.453125q-1.34375 0 -2.0 1.203125l0 7.015625l-2.203125 0l0 -9.859375l2.078125 0z" fill-rule="nonzero"/><path fill="#000000" fill-opacity="0.0" d="m1254.3911 111.29921l200.78735 0l0 33.259842l-200.78735 0z" fill-rule="evenodd"/><path fill="#000000" d="m1264.7349 134.84914l0 -13.265633l3.921875 0q1.75 0 3.109375 0.78125q1.375 0.78125 2.109375 2.234375q0.75 1.4375 0.75 3.296875l0 0.6562576q0 1.890625 -0.75 3.328125q-0.75 1.421875 -2.140625 2.203125q-1.390625 0.765625 -3.171875 0.765625l-3.828125 0zm2.3125 -11.406258l0 9.562508l1.5 0q1.8125 0 2.78125 -1.125q0.96875 -1.140625 0.984375 -3.265625l0 -0.7343826q0 -2.15625 -0.9375 -3.296875q-0.9375 -1.140625 -2.71875 -1.140625l-1.609375 0zm14.000977 11.593758q-2.09375 0 -3.40625 -1.328125q-1.3125 -1.328125 -1.3125 -3.53125l0 -0.28125q0 -1.46875 0.5625 -2.6250076q0.578125 -1.171875 1.609375 -1.8125q1.03125 -0.640625 2.296875 -0.640625q2.015625 0 3.109375 1.28125q1.09375 1.28125 1.09375 3.6250076l0 0.890625l-6.4375 0q0.109375 1.234375 0.8125 1.953125q0.71875 0.703125 1.8125 0.703125q1.515625 0 2.46875 -1.234375l1.203125 1.140625q-0.59375 0.875 -1.59375 1.375q-0.984375 0.484375 -2.21875 0.484375zm-0.265625 -8.453133q-0.90625 0 -1.46875 0.640625q-0.5625 0.640625 -0.703125 1.7812576l4.203125 0l0 -0.171875q-0.0625 -1.1093826 -0.59375 -1.6718826q-0.515625 -0.578125 -1.4375 -0.578125zm9.995728 6.6875076q0.828125 0 1.375 -0.484375q0.546875 -0.484375 0.578125 -1.203125l2.09375 0q-0.046875 0.921875 -0.59375 1.71875q-0.53125 0.796875 -1.453125 1.265625q-0.90625 0.46875 -1.984375 0.46875q-2.0625 0 -3.28125 -1.34375q-1.203125 -1.34375 -1.203125 -3.703125l0 -0.21875q0 -2.2500076 1.203125 -3.5937576q1.203125 -1.359375 3.28125 -1.359375q1.75 0 2.859375 1.03125q1.109375 1.015625 1.171875 2.6718826l-2.09375 0q-0.03125 -0.8437576 -0.578125 -1.3906326q-0.546875 -0.546875 -1.375 -0.546875q-1.078125 0 -1.671875 0.78125q-0.578125 0.7812576 -0.578125 2.3593826l0 0.359375q0 1.609375 0.578125 2.40625q0.578125 0.78125 1.671875 0.78125zm5.296631 -3.4375q0 -1.453125 0.578125 -2.6093826q0.578125 -1.171875 1.609375 -1.78125q1.03125 -0.625 2.390625 -0.625q1.984375 0 3.234375 1.28125q1.25 1.28125 1.34375 3.4062576l0.015625 0.515625q0 1.453125 -0.5625 2.609375q-0.5625 1.140625 -1.609375 1.78125q-1.046875 0.625 -2.40625 0.625q-2.09375 0 -3.34375 -1.390625q-1.25 -1.390625 -1.25 -3.703125l0 -0.109375zm2.21875 0.1875q0 1.515625 0.625 2.390625q0.625 0.859375 1.75 0.859375q1.125 0 1.734375 -0.875q0.625 -0.875 0.625 -2.5625q0 -1.5 -0.640625 -2.3750076q-0.640625 -0.875 -1.734375 -0.875q-1.09375 0 -1.734375 0.859375q-0.625 0.8593826 -0.625 2.5781326zm13.981079 -3.0000076q-0.4375 -0.078125 -0.90625 -0.078125q-1.515625 0 -2.046875 1.1718826l0 6.734375l-2.21875 0l0 -9.859383l2.125 0l0.046875 1.109375q0.796875 -1.28125 2.21875 -1.28125q0.484375 0 0.78125 0.125l0 2.078125zm7.0041504 7.8281326q-0.140625 -0.28125 -0.25 -0.921875q-1.046875 1.109375 -2.578125 1.109375q-1.484375 0 -2.4375 -0.84375q-0.9375 -0.859375 -0.9375 -2.109375q0 -1.578125 1.171875 -2.40625q1.171875 -0.84375 3.359375 -0.84375l1.359375 0l0 -0.65625q0 -0.7656326 -0.4375 -1.2187576q-0.421875 -0.46875 -1.296875 -0.46875q-0.765625 0 -1.25 0.390625q-0.46875 0.375 -0.46875 0.953125l-2.21875 0q0 -0.8125 0.53125 -1.515625q0.546875 -0.703125 1.46875 -1.09375q0.921875 -0.40625 2.0625 -0.40625q1.734375 0 2.75 0.875q1.03125 0.859375 1.0625 2.4375076l0 4.4375q0 1.328125 0.375 2.125l0 0.15625l-2.265625 0zm-2.421875 -1.59375q0.65625 0 1.234375 -0.3125q0.578125 -0.328125 0.875 -0.859375l0 -1.859375l-1.203125 0q-1.234375 0 -1.859375 0.4375q-0.609375 0.421875 -0.609375 1.203125q0 0.640625 0.421875 1.015625q0.421875 0.375 1.140625 0.375zm9.405762 -10.656258l0 2.390625l1.734375 0l0 1.640625l-1.734375 0l0 5.5000076q0 0.5625 0.21875 0.8125q0.234375 0.25 0.796875 0.25q0.390625 0 0.78125 -0.078125l0 1.703125q-0.75 0.21875 -1.453125 0.21875q-2.5625 0 -2.5625 -2.8125l0 -5.5937576l-1.609375 0l0 -1.640625l1.609375 0l0 -2.390625l2.21875 0zm2.7426758 7.2343826q0 -1.453125 0.578125 -2.6093826q0.578125 -1.171875 1.609375 -1.78125q1.03125 -0.625 2.390625 -0.625q1.984375 0 3.234375 1.28125q1.25 1.28125 1.34375 3.4062576l0.015625 0.515625q0 1.453125 -0.5625 2.609375q-0.5625 1.140625 -1.609375 1.78125q-1.046875 0.625 -2.40625 0.625q-2.09375 0 -3.34375 -1.390625q-1.25 -1.390625 -1.25 -3.703125l0 -0.109375zm2.21875 0.1875q0 1.515625 0.625 2.390625q0.625 0.859375 1.75 0.859375q1.125 0 1.734375 -0.875q0.625 -0.875 0.625 -2.5625q0 -1.5 -0.640625 -2.3750076q-0.640625 -0.875 -1.734375 -0.875q-1.09375 0 -1.734375 0.859375q-0.625 0.8593826 -0.625 2.5781326zm13.980957 -3.0000076q-0.4375 -0.078125 -0.90625 -0.078125q-1.515625 0 -2.046875 1.1718826l0 6.734375l-2.21875 0l0 -9.859383l2.125 0l0.046875 1.109375q0.796875 -1.28125 2.21875 -1.28125q0.484375 0 0.78125 0.125l0 2.078125zm14.673462 3.0000076q0 2.28125 -1.046875 3.65625q-1.03125 1.359375 -2.78125 1.359375q-1.625 0 -2.59375 -1.078125l0 4.6875l-2.21875 0l0 -13.656258l2.046875 0l0.09375 1.0q0.96875 -1.171875 2.640625 -1.171875q1.8125 0 2.828125 1.34375q1.03125 1.34375 1.03125 3.7187576l0 0.140625zm-2.203125 -0.1875q0 -1.484375 -0.59375 -2.3437576q-0.578125 -0.859375 -1.671875 -0.859375q-1.359375 0 -1.953125 1.109375l0 4.3750076q0.59375 1.15625 1.96875 1.15625q1.0625 0 1.65625 -0.84375q0.59375 -0.859375 0.59375 -2.59375zm9.956421 5.015625q-0.140625 -0.28125 -0.25 -0.921875q-1.046875 1.109375 -2.578125 1.109375q-1.484375 0 -2.4375 -0.84375q-0.9375 -0.859375 -0.9375 -2.109375q0 -1.578125 1.171875 -2.40625q1.171875 -0.84375 3.359375 -0.84375l1.359375 0l0 -0.65625q0 -0.7656326 -0.4375 -1.2187576q-0.421875 -0.46875 -1.296875 -0.46875q-0.765625 0 -1.25 0.390625q-0.46875 0.375 -0.46875 0.953125l-2.21875 0q0 -0.8125 0.53125 -1.515625q0.546875 -0.703125 1.46875 -1.09375q0.921875 -0.40625 2.0625 -0.40625q1.734375 0 2.75 0.875q1.03125 0.859375 1.0625 2.4375076l0 4.4375q0 1.328125 0.375 2.125l0 0.15625l-2.265625 0zm-2.421875 -1.59375q0.65625 0 1.234375 -0.3125q0.578125 -0.328125 0.875 -0.859375l0 -1.859375l-1.203125 0q-1.234375 0 -1.859375 0.4375q-0.609375 0.421875 -0.609375 1.203125q0 0.640625 0.421875 1.015625q0.421875 0.375 1.140625 0.375zm9.405762 -10.656258l0 2.390625l1.734375 0l0 1.640625l-1.734375 0l0 5.5000076q0 0.5625 0.21875 0.8125q0.234375 0.25 0.796875 0.25q0.390625 0 0.78125 -0.078125l0 1.703125q-0.75 0.21875 -1.453125 0.21875q-2.5625 0 -2.5625 -2.8125l0 -5.5937576l-1.609375 0l0 -1.640625l1.609375 0l0 -2.390625l2.21875 0zm6.2036133 0l0 2.390625l1.734375 0l0 1.640625l-1.734375 0l0 5.5000076q0 0.5625 0.21875 0.8125q0.234375 0.25 0.796875 0.25q0.390625 0 0.78125 -0.078125l0 1.703125q-0.75 0.21875 -1.453125 0.21875q-2.5625 0 -2.5625 -2.8125l0 -5.5937576l-1.609375 0l0 -1.640625l1.609375 0l0 -2.390625l2.21875 0zm7.7661133 12.437508q-2.09375 0 -3.40625 -1.328125q-1.3125 -1.328125 -1.3125 -3.53125l0 -0.28125q0 -1.46875 0.5625 -2.6250076q0.578125 -1.171875 1.609375 -1.8125q1.03125 -0.640625 2.296875 -0.640625q2.015625 0 3.109375 1.28125q1.09375 1.28125 1.09375 3.6250076l0 0.890625l-6.4375 0q0.109375 1.234375 0.8125 1.953125q0.71875 0.703125 1.8125 0.703125q1.515625 0 2.46875 -1.234375l1.203125 1.140625q-0.59375 0.875 -1.59375 1.375q-0.984375 0.484375 -2.21875 0.484375zm-0.265625 -8.453133q-0.90625 0 -1.46875 0.640625q-0.5625 0.640625 -0.703125 1.7812576l4.203125 0l0 -0.171875q-0.0625 -1.1093826 -0.59375 -1.6718826q-0.515625 -0.578125 -1.4375 -0.578125zm11.10498 0.4375q-0.4375 -0.078125 -0.90625 -0.078125q-1.515625 0 -2.046875 1.1718826l0 6.734375l-2.21875 0l0 -9.859383l2.125 0l0.046875 1.109375q0.796875 -1.28125 2.21875 -1.28125q0.484375 0 0.78125 0.125l0 2.078125zm3.449463 -2.03125l0.0625 1.140625q1.09375 -1.3125 2.875 -1.3125q3.078125 0 3.125 3.5156326l0 6.515625l-2.203125 0l0 -6.390625q0 -0.9375076 -0.40625 -1.3750076q-0.40625 -0.453125 -1.328125 -0.453125q-1.34375 0 -2.0 1.203125l0 7.0156326l-2.203125 0l0 -9.859383l2.078125 0z" fill-rule="nonzero"/></g></svg>